<?xml version="1.0" encoding="UTF-8" standalone="no"?>
<!DOCTYPE svg PUBLIC "-//W3C//DTD SVG 1.1//EN" "http://www.w3.org/Graphics/SVG/1.1/DTD/svg11.dtd">
<svg width="100%" height="100%" viewBox="0 0 2500 333" version="1.1" xmlns="http://www.w3.org/2000/svg" xmlns:xlink="http://www.w3.org/1999/xlink" xml:space="preserve" xmlns:serif="http://www.serif.com/" style="fill-rule:evenodd;clip-rule:evenodd;stroke-linejoin:round;stroke-miterlimit:2;">
    <g id="Layer_x0020_1">
        <g id="_1995837174000">
            <path d="M126.1,333C89.5,333 59.2,324.2 35.3,306.5C11.4,288.9 0,263.6 0,232.1C0,225.8 1.3,217 2.5,206.9C6.3,184.2 12.6,157.7 20.2,126.2C41.6,41.6 95.9,-1.3 184.2,-1.3C208.2,-1.3 229.6,2.5 248.5,11.3C267.4,18.9 282.6,30.2 293.9,46.6C305.3,61.7 310.3,80.7 310.3,102.1C310.3,108.4 309,117.2 307.8,126.1C302.8,153.8 297.7,180.3 291.4,206.8C280,249.7 261.1,281.2 234.6,301.4C208.1,321.6 171.5,333 127.4,333L126.1,333ZM132.4,266.1C150.1,266.1 165.2,261.1 176.5,251C189.1,240.9 197.9,225.8 203,204.3C210.6,175.3 215.6,150.1 219.4,128.6C220.7,122.3 220.7,116 220.7,108.4C220.7,80.7 205.6,66.8 176.6,66.8C158.9,66.8 143.8,71.8 131.2,81.9C118.6,92 109.8,107.1 104.7,128.6C99.7,148.8 93.3,174 88.3,204.3C87,210.6 87,217 87,223.3C87,252.3 102.2,266.1 132.4,266.1Z" style="fill:white;fill-rule:nonzero;"/>
            <path d="M357,329.2C353.2,329.2 350.7,327.9 349.4,325.4C348.1,322.9 346.9,320.4 348.1,316.6L412.4,15.1C413.7,11.3 414.9,8.8 417.4,6.3C419.9,3.8 423.7,2.5 426.2,2.5L551.1,2.5C585.2,2.5 612.9,10.1 634.3,23.9C655.7,37.7 666,59.3 666,85.8C666,93.4 664.7,100.9 663.5,109.8C655.9,145.1 639.5,171.6 616.8,188C592.8,204.4 561.3,213.2 520.9,213.2L457.8,213.2L436.4,314.1C436.4,317.9 433.9,320.4 431.4,322.9C428.9,325.4 425.1,326.7 422.6,326.7L359.5,326.7L357,329.2ZM522.2,152.6C534.8,152.6 546.2,148.8 556.3,142.5C566.4,134.9 572.7,124.8 576.5,112.2C577.8,107.2 577.8,102.1 577.8,98.3C577.8,89.5 575.3,83.2 570.2,78.1C565.1,73 556.3,70.5 542.5,70.5L487,70.5L469.3,153.7L523.5,153.7L522.2,152.6Z" style="fill:white;fill-rule:nonzero;"/>
            <path d="M770.7,329.2C766.9,329.2 764.4,327.9 763.1,325.4C761.8,322.9 760.6,320.4 761.8,316.6L813.5,76.9L730.3,76.9C726.5,76.9 724,75.6 722.7,73.1C721.4,70.6 720.2,68.1 721.4,64.3L732.8,15.1C734.1,11.3 735.3,8.8 737.8,6.3C740.3,3.8 744.1,2.5 746.6,2.5L997.6,2.5C1001.4,2.5 1003.9,3.8 1005.2,6.3C1006.5,7.6 1006.5,10.1 1006.5,11.3L1006.5,13.8L995.1,63C995.1,66.8 992.6,69.3 990.1,71.8C987.6,74.3 985.1,75.6 981.3,75.6L898.1,75.6L846.4,315.3C845.1,319.1 843.9,321.6 841.4,324.1C838.9,326.6 835.1,327.9 832.6,327.9L770.8,327.9L770.8,329.2L770.7,329.2Z" style="fill:white;fill-rule:nonzero;"/>
            <path d="M1017.9,329.2C1014.1,329.2 1011.6,327.9 1010.3,325.4C1009,322.9 1007.8,320.4 1009,316.6L1074.6,15.1C1074.6,11.3 1077.1,8.8 1079.6,6.3C1082.1,3.8 1085.9,2.5 1088.4,2.5L1151.5,2.5C1155.3,2.5 1157.8,3.8 1159.1,6.3C1160.4,7.6 1160.4,10.1 1160.4,11.3L1160.4,13.8L1096.1,315.3C1096.1,319.1 1093.6,321.6 1091.1,324.1C1088.6,326.6 1084.8,327.9 1082.3,327.9L1019.2,327.9L1017.9,329.2Z" style="fill:white;fill-rule:nonzero;"/>
            <path d="M1197,329.2C1193.2,329.2 1190.7,327.9 1189.4,325.4C1188.1,322.9 1186.9,320.4 1188.1,316.6L1252.4,15.1C1252.4,11.3 1254.9,8.8 1257.4,6.3C1259.9,3.8 1263.7,2.5 1266.2,2.5L1316.7,2.5C1324.3,2.5 1329.3,6.3 1330.6,12.6L1381.1,158.9L1494.6,12.6C1495.9,10.1 1498.4,7.6 1500.9,5C1503.4,2.4 1507.2,1.2 1512.3,1.2L1562.8,1.2C1566.6,1.2 1569.1,2.5 1570.4,5C1571.7,6.3 1571.7,8.8 1571.7,10L1571.7,12.5L1507.4,314C1507.4,317.8 1504.9,320.3 1502.4,322.8C1499.9,325.3 1496.1,326.6 1493.6,326.6L1436.8,326.6C1433,326.6 1430.5,325.3 1429.2,322.8C1427.9,320.3 1426.7,317.8 1427.9,314L1464.5,143.7L1392.6,238.3C1390.1,242.1 1386.3,244.6 1383.8,245.9C1381.3,247.2 1377.5,248.4 1373.7,248.4L1349.7,248.4C1343.4,248.4 1338.3,244.6 1335.8,238.3L1303,140L1265.2,315.3C1263.9,319.1 1262.7,321.6 1260.2,324.1C1257.7,326.6 1253.9,327.9 1251.4,327.9L1195.9,327.9L1197,329.2Z" style="fill:white;fill-rule:nonzero;"/>
            <path d="M1609.5,329.2C1605.7,329.2 1603.2,327.9 1601.9,325.4C1600.6,322.9 1599.4,320.4 1600.6,316.6L1666.2,15.1C1667.5,11.3 1668.7,8.8 1671.2,6.3C1673.7,3.8 1677.5,2.5 1680,2.5L1743.1,2.5C1746.9,2.5 1749.4,3.8 1750.7,6.3C1752,7.6 1752,10.1 1752,11.3L1752,13.8L1687.7,315.3C1687.7,319.1 1685.2,321.6 1682.7,324.1C1680.2,326.6 1676.4,327.9 1673.9,327.9L1610.8,327.9L1609.5,329.2Z" style="fill:white;fill-rule:nonzero;"/>
            <path d="M1902.1,333C1874.4,333 1851.6,329.2 1831.5,321.6C1812.6,314 1797.4,303.9 1787.4,292.6C1777.3,280 1772.3,266.1 1772.3,251C1772.3,248.5 1772.3,244.7 1773.6,239.6C1774.9,237.1 1776.1,234.6 1777.4,232C1779.9,230.7 1782.4,229.5 1785,229.5L1844.3,229.5C1848.1,229.5 1850.6,229.5 1853.1,230.8C1855.6,232.1 1856.9,234.6 1859.4,237.1C1861.9,244.7 1867,252.2 1874.5,257.3C1882,262.4 1893.4,264.9 1907.3,264.9C1925,264.9 1938.8,262.4 1950.2,256.1C1961.6,251.1 1967.9,243.5 1970.4,233.4L1970.4,228.4C1970.4,220.8 1965.4,214.5 1956.5,210.7C1946.4,205.7 1928.8,200.6 1903.5,194.3C1873.2,188 1850.5,177.9 1835.4,165.3C1820.3,151.4 1811.4,135 1811.4,113.6C1811.4,106 1812.7,98.5 1813.9,90.9C1820.2,61.9 1835.3,39.2 1860.6,22.8C1885.9,6.4 1917.4,-1.2 1956.5,-1.2C1980.5,-1.2 2000.6,2.6 2019.6,11.4C2038.6,20.2 2052.4,30.3 2062.5,42.9C2072.6,55.5 2077.6,68.1 2077.6,80.7L2077.6,88.3C2077.6,90.8 2075.1,93.3 2073.8,95.9C2072.5,97.2 2070,98.4 2066.2,98.4L2003,98.4C1996.7,98.4 1991.6,95.9 1989.1,90.8C1989.1,83.2 1985.3,78.2 1977.7,73.1C1970.1,68 1961.3,65.5 1950,65.5C1936.1,65.5 1924.8,68 1915.9,73.1C1907,78.2 1902,85.7 1899.5,94.5L1899.5,100.8C1899.5,108.4 1903.3,114.7 1912.1,119.7C1920.9,124.7 1937.3,128.5 1958.8,133.6C1994.1,139.9 2019.3,150 2034.5,162.6C2050.9,175.2 2058.5,191.6 2058.5,213.1C2058.5,220.7 2057.2,228.2 2056,235.8C2049.7,267.3 2032,291.3 2005.5,307.7C1979,324.1 1943.7,331.7 1900.8,331.7L1902.1,333Z" style="fill:white;fill-rule:nonzero;"/>
            <path d="M2122.9,329.2C2119.1,329.2 2116.6,327.9 2115.3,325.4C2114,322.9 2112.8,320.4 2114,316.6L2178.3,15.1C2178.3,11.3 2180.8,8.8 2183.3,6.3C2185.8,3.8 2189.6,2.5 2192.1,2.5L2242.6,2.5C2250.2,2.5 2255.2,6.3 2256.5,12.6L2307,158.9L2420.5,12.6C2421.8,10.1 2424.3,7.6 2426.8,5C2429.3,2.4 2433.1,1.2 2438.2,1.2L2488.7,1.2C2492.5,1.2 2495,2.5 2496.3,5C2497.6,6.3 2497.6,8.8 2497.6,10L2497.6,12.5L2433.3,314C2432,317.8 2430.8,320.3 2428.3,322.8C2425.8,325.3 2422,326.6 2419.5,326.6L2362.7,326.6C2358.9,326.6 2356.4,325.3 2355.1,322.8C2353.8,320.3 2352.6,317.8 2353.8,314L2390.4,143.7L2318.5,238.3C2316,242.1 2312.2,244.6 2309.7,245.9C2307.2,247.2 2303.4,248.4 2299.6,248.4L2275.6,248.4C2269.3,248.4 2264.2,244.6 2261.7,238.3L2228.9,139.9L2191,315.3C2189.7,319.1 2188.5,321.6 2186,324.1C2183.5,326.6 2179.7,327.9 2177.2,327.9L2121.7,327.9L2122.9,329.2Z" style="fill:white;fill-rule:nonzero;"/>
        </g>
    </g>
</svg>
