<svg width="1920" height="489" viewBox="0 0 1920 489" fill="none" xmlns="http://www.w3.org/2000/svg">
<path d="M16.3999 148.6V340.3C16.3999 352.5 22.8999 363.8 33.4999 369.9L199.5 465.7C210.1 471.8 223.1 471.8 233.7 465.7L399.7 369.9C410.3 363.8 416.8 352.5 416.8 340.3V148.6C416.8 136.4 410.3 125.1 399.7 119L233.7 23.2C223.1 17.1 210.1 17.1 199.5 23.2L33.4999 119C22.9999 125.1 16.3999 136.4 16.3999 148.6Z" fill="#213147"/>
<path d="M252.9 281.6L229.2 346.5C228.5 348.3 228.5 350.3 229.2 352.1L269.9 463.8L317 436.6L260.5 281.6C259.2 278 254.2 278 252.9 281.6Z" fill="#12AAFF"/>
<path d="M300.3 172.4C299 168.8 294 168.8 292.7 172.4L269 237.3C268.3 239.1 268.3 241.1 269 242.9L335.7 425.8L382.8 398.6L300.3 172.4Z" fill="#12AAFF"/>
<path d="M216.6 30.3C217.8 30.3 218.9 30.6 220 31.2L399.6 134.9C401.7 136.1 403 138.3 403 140.7V348.1C403 350.5 401.7 352.7 399.6 353.9L220 457.7C219 458.3 217.8 458.6 216.6 458.6C215.4 458.6 214.3 458.3 213.2 457.7L33.7 354C31.6 352.8 30.3 350.6 30.3 348.2V140.7C30.3 138.3 31.6 136.1 33.7 134.9L213.3 31.2C214.3 30.6 215.5 30.3 216.6 30.3ZM216.6 0C210.2 0 203.8 1.7 198.1 5L18.5 108.7C7.1 115.3 0 127.5 0 140.7V348.1C0 361.3 7.1 373.6 18.5 380.2L198.1 483.9C203.8 487.2 210.2 488.9 216.6 488.9C223 488.9 229.4 487.2 235.1 483.9L414.7 380.2C426.2 373.6 433.2 361.4 433.2 348.1V140.7C433.2 127.5 426.1 115.2 414.7 108.6L235.2 5C229.4 1.7 223 0 216.6 0Z" fill="#9DCCED"/>
<path d="M97.8999 426L114.4 380.8L147.6 408.4L116.6 436.8L97.8999 426Z" fill="#213147"/>
<path d="M201.5 125.9H156C152.6 125.9 149.5 128 148.4 131.2L50.7998 398.8L97.8998 426L205.4 131.3C206.3 128.7 204.4 125.9 201.5 125.9Z" fill="white"/>
<path d="M281.2 125.9H235.7C232.3 125.9 229.2 128 228.1 131.2L116.6 436.8L163.7 464L285 131.4C286 128.7 284 125.9 281.2 125.9Z" fill="white"/>
<path d="M627.1 181.6C631.6 181.6 635.5 182.5 638.6 184.4C641.7 186.3 644.8 189.9 647.8 195.3L707.2 303.1C707.8 304.3 707.9 305.3 707.6 306.1C707.3 306.9 706.4 307.3 705 307.3H682.2C680.2 307.3 678.8 306.5 678.1 305L665.4 281.9H581.1L568.7 305C567.9 306.6 566.5 307.3 564.6 307.3H541.3C539.7 307.3 538.8 306.9 538.5 306.1C538.2 305.3 538.3 304.3 538.9 303.1L597.8 195.3C600.8 189.9 603.7 186.3 606.6 184.4C609.5 182.5 612.8 181.6 616.6 181.6H627.1ZM592.2 260.9H654L625.5 208.3C625 207.5 624.4 207 623.5 207H622.4C621.6 207 620.9 207.4 620.4 208.3L592.2 260.9Z" fill="white"/>
<path d="M837.7 181.6C851.5 181.6 861.3 184.7 867.3 190.9C873.3 197.1 876.3 206.3 876.3 218.5V228.7C876.3 239 874.2 247.1 870 253.1C865.8 259.1 859 262.9 849.5 264.6L880.2 302.6C880.8 303.2 881 304.1 880.7 305.3C880.5 306.5 879.5 307.1 877.8 307.1H854.7C853.1 307.1 852.1 306.9 851.5 306.6C850.9 306.2 850.3 305.6 849.7 304.8L821.3 267.5H763.3V303.2C763.3 305.8 762 307.1 759.4 307.1H740C737.2 307.1 735.9 305.8 735.9 303.2V187C735.9 183.4 737.7 181.6 741.3 181.6H837.7ZM763.4 245.7H832.1C838.2 245.7 842.5 244.4 845 241.8C847.5 239.2 848.8 235.2 848.8 229.8V222.3C848.8 216.9 847.5 212.9 845 210.3C842.5 207.7 838.2 206.4 832.1 206.4H765.7C764.1 206.4 763.4 207.1 763.4 208.6V245.7Z" fill="white"/>
<path d="M1026.4 181.6C1038.7 181.6 1047.5 184.1 1052.7 189C1057.9 193.9 1060.5 201.3 1060.5 211.2V219.8C1060.5 229.8 1056.7 237.4 1049 242.6C1057.2 247.4 1061.4 255.1 1061.4 265.7V276.1C1061.4 280.9 1060.9 285.2 1059.8 289C1058.7 292.8 1057 296.1 1054.5 298.8C1052 301.5 1048.8 303.6 1044.7 305C1040.6 306.4 1035.6 307.2 1029.6 307.2H923C919.4 307.2 917.6 305.4 917.6 301.8V187C917.6 183.4 919.4 181.6 923 181.6H1026.4ZM945.1 233.8H1018.7C1024.7 233.8 1028.7 232.9 1030.9 231.1C1033.1 229.3 1034.1 226.7 1034.1 223.2V217.1C1034.1 213.4 1033.1 210.7 1031 208.9C1028.9 207.2 1025.5 206.3 1020.9 206.3H947.5C945.9 206.3 945.2 207.1 945.2 208.6V233.8H945.1ZM945.1 253.4V280.1C945.1 281.7 945.9 282.4 947.4 282.4H1021C1025.8 282.4 1029.2 281.5 1031.2 279.8C1033.2 278.1 1034.3 275.3 1034.3 271.5V264.7C1034.3 261 1033.2 258.2 1031 256.3C1028.8 254.4 1024.7 253.4 1018.7 253.4H945.1Z" fill="white"/>
<path d="M1128.3 181.6C1130.9 181.6 1132.2 182.9 1132.2 185.5V303.2C1132.2 305.8 1130.9 307.1 1128.3 307.1H1108.9C1106.1 307.1 1104.8 305.8 1104.8 303.2V185.6C1104.8 183 1106.2 181.7 1108.9 181.7L1128.3 181.6Z" fill="white"/>
<path d="M1316.3 181.6C1319.1 181.6 1320.4 182.9 1320.4 185.5V203.1C1320.4 205.9 1319 207.2 1316.3 207.2H1260V303.2C1260 305.8 1258.7 307.1 1256.1 307.1H1236.5C1233.9 307.1 1232.6 305.8 1232.6 303.2V207.2H1176.3C1173.5 207.2 1172.2 205.8 1172.2 203.1V185.5C1172.2 182.9 1173.6 181.6 1176.3 181.6H1316.3Z" fill="white"/>
<path d="M1458.2 181.6C1472 181.6 1481.8 184.7 1487.8 190.9C1493.8 197.1 1496.8 206.3 1496.8 218.5V228.7C1496.8 239 1494.7 247.1 1490.5 253.1C1486.3 259.1 1479.5 262.9 1470 264.6L1500.7 302.6C1501.3 303.2 1501.5 304.1 1501.2 305.3C1501 306.5 1500 307.1 1498.3 307.1H1475.2C1473.6 307.1 1472.6 306.9 1472 306.6C1471.4 306.2 1470.8 305.6 1470.2 304.8L1441.8 267.5H1383.8V303.2C1383.8 305.8 1382.5 307.1 1379.9 307.1H1360.5C1357.7 307.1 1356.4 305.8 1356.4 303.2V187C1356.4 183.4 1358.2 181.6 1361.8 181.6H1458.2ZM1384 245.7H1452.7C1458.8 245.7 1463.1 244.4 1465.6 241.8C1468.1 239.2 1469.4 235.2 1469.4 229.8V222.3C1469.4 216.9 1468.1 212.9 1465.6 210.3C1463.1 207.7 1458.8 206.4 1452.7 206.4H1386.3C1384.7 206.4 1384 207.1 1384 208.6V245.7Z" fill="white"/>
<path d="M1559.1 181.6C1561.7 181.6 1563 182.9 1563 185.5V257.1C1563 261.9 1563.4 265.9 1564.2 269C1565 272.2 1566.3 274.7 1568.1 276.5C1569.9 278.4 1572.3 279.7 1575.4 280.4C1578.5 281.2 1582.3 281.6 1587 281.6H1636.7C1641.4 281.6 1645.2 281.2 1648.3 280.4C1651.4 279.6 1653.8 278.3 1655.6 276.5C1657.4 274.6 1658.7 272.1 1659.4 269C1660.1 265.8 1660.5 261.9 1660.5 257.1V185.5C1660.5 182.9 1661.8 181.6 1664.4 181.6H1684C1686.6 181.6 1687.9 182.9 1687.9 185.5V259.8C1687.9 268.4 1687 275.7 1685.2 281.8C1683.4 287.8 1680.5 292.7 1676.5 296.5C1672.5 300.3 1667.3 303 1660.9 304.7C1654.5 306.4 1646.8 307.2 1637.7 307.2H1586C1576.9 307.2 1569.2 306.4 1562.9 304.7C1556.6 303 1551.4 300.3 1547.4 296.5C1543.4 292.7 1540.5 287.8 1538.6 281.8C1536.7 275.8 1535.8 268.4 1535.8 259.8V185.5C1535.8 182.9 1537.2 181.6 1539.9 181.6H1559.1Z" fill="white"/>
<path d="M1765 181.6C1767.6 181.6 1769.9 181.8 1771.8 182.1C1773.7 182.5 1775.4 183.1 1776.8 184.2C1778.2 185.2 1779.5 186.6 1780.7 188.3C1781.8 190 1783 192.3 1784.2 195.2L1821.5 281.3C1822 282.4 1822.8 282.9 1824 282.9H1826.2C1827.4 282.9 1828.2 282.4 1828.7 281.3L1866 195.2C1867.2 192.3 1868.4 190 1869.5 188.3C1870.6 186.6 1871.9 185.2 1873.4 184.2C1874.8 183.2 1876.5 182.5 1878.3 182.1C1880.2 181.7 1882.4 181.6 1885 181.6H1904.2C1910.4 181.6 1914.6 183 1916.8 185.8C1919 188.6 1920 193.4 1920 200.2V303.2C1920 305.8 1918.6 307.1 1915.9 307.1H1897.6C1895 307.1 1893.7 305.8 1893.7 303.2V209.5C1893.7 208.3 1893.2 207.7 1892.3 207.7H1890.7C1889.5 207.7 1888.7 208.2 1888.4 209.1L1852.2 289.5C1850.8 292.7 1849.3 295.5 1847.8 297.7C1846.3 299.9 1844.7 301.7 1843 303.2C1841.3 304.6 1839.3 305.7 1837.1 306.3C1834.9 306.9 1832.3 307.2 1829.3 307.2H1820.7C1817.7 307.2 1815.1 306.9 1812.9 306.3C1810.7 305.7 1808.7 304.7 1807 303.2C1805.3 301.8 1803.6 299.9 1802.2 297.7C1800.7 295.5 1799.2 292.8 1797.8 289.5L1761.6 209.1C1761.2 208.1 1760.5 207.7 1759.3 207.7H1757.7C1756.7 207.7 1756.3 208.3 1756.3 209.5V303.2C1756.3 305.8 1755 307.1 1752.4 307.1H1734.1C1731.3 307.1 1730 305.8 1730 303.2V200.2C1730 193.4 1731.1 188.6 1733.2 185.8C1735.4 183 1739.6 181.6 1745.9 181.6H1765Z" fill="white"/>
</svg>
