<?xml version="1.0" encoding="UTF-8" standalone="no"?>
<!DOCTYPE svg PUBLIC "-//W3C//DTD SVG 1.1//EN" "http://www.w3.org/Graphics/SVG/1.1/DTD/svg11.dtd">
<svg width="100%" height="100%" viewBox="0 0 890 546" version="1.1" xmlns="http://www.w3.org/2000/svg" xmlns:xlink="http://www.w3.org/1999/xlink" xml:space="preserve" xmlns:serif="http://www.serif.com/" style="fill-rule:evenodd;clip-rule:evenodd;stroke-linejoin:round;stroke-miterlimit:2;">
    <path d="M338.7,280.3L377.8,280.3C377.8,284.3 377.6,288 377.3,291.3C377,294.6 376.3,297.6 375.3,300.4C373.9,304.4 372,307.9 369.6,311C367.2,314 364.3,316.6 361.1,318.6C357.9,320.6 354.3,322.2 350.4,323.2C346.5,324.3 342.4,324.8 338.1,324.8C332.2,324.8 326.8,323.8 321.9,321.9C317.1,320 312.9,317.2 309.4,313.8C305.9,310.2 303.2,306 301.3,301.1C299.4,296.1 298.4,290.7 298.4,284.7C298.4,278.8 299.3,273.4 301.2,268.5C303.1,263.5 305.9,259.3 309.3,255.8C312.9,252.3 317.1,249.6 322.1,247.7C327.1,245.8 332.6,244.8 338.7,244.8C346.6,244.8 353.5,246.5 359.5,249.9C365.5,253.3 370.2,258.6 373.7,265.8L355,273.5C353.3,269.3 351,266.4 348.2,264.6C345.5,262.8 342.3,261.9 338.8,261.9C335.9,261.9 333.2,262.5 330.8,263.6C328.4,264.7 326.3,266.2 324.6,268.3C322.9,270.3 321.6,272.8 320.6,275.6C319.7,278.5 319.2,281.7 319.2,285.2C319.2,288.4 319.6,291.4 320.4,294.1C321.3,296.8 322.5,299.2 324.2,301.2C325.9,303.2 328,304.8 330.4,305.9C332.9,307 335.8,307.5 339,307.5C340.9,307.5 342.8,307.3 344.6,306.9C346.4,306.4 348,305.7 349.4,304.8C350.9,303.8 352.1,302.5 353,301C353.9,299.5 354.6,297.6 354.9,295.4L338.7,295.4L338.7,280.3ZM475,262.8L475,324.8L454,324.8L454,262.8L437,262.8L437,244.8L492,244.8L492,262.8L475,262.8ZM565,272.2C560.4,266.6 554.8,263.8 548.1,263.8C545.1,263.8 542.4,264.3 539.8,265.4C537.3,266.5 535.2,268 533.3,269.8C531.5,271.6 530,273.8 529,276.4C528,279 527.5,281.7 527.5,284.7C527.5,287.7 528,290.5 529,293.1C530.1,295.7 531.5,297.9 533.3,299.8C535.2,301.7 537.4,303.2 539.9,304.2C542.4,305.3 545.1,305.8 548,305.8C554.3,305.8 560,303.1 565,297.7L565,321.1L563,321.8C560,322.9 557.2,323.6 554.5,324.1C551.9,324.6 549.3,324.9 546.7,324.9C541.5,324.9 536.4,323.9 531.6,322C526.8,320 522.6,317.2 518.9,313.6C515.3,310 512.3,305.7 510.1,300.8C507.9,295.8 506.8,290.4 506.8,284.6C506.8,278.8 507.9,273.4 510,268.6C512.2,263.7 515.1,259.5 518.8,256C522.5,252.4 526.8,249.7 531.6,247.7C536.4,245.7 541.5,244.7 546.8,244.7C549.8,244.7 552.8,245 555.7,245.7C558.7,246.3 561.8,247.3 565,248.6L565,272.2ZM606.2,284.8C606.2,287.8 606.8,290.6 607.9,293.2C609,295.8 610.6,298 612.5,299.9C614.4,301.8 616.7,303.3 619.3,304.3C621.9,305.3 624.7,305.8 627.6,305.8C630.5,305.8 633.2,305.3 635.8,304.3C638.4,303.2 640.7,301.7 642.7,299.9C644.7,298 646.3,295.8 647.4,293.2C648.5,290.6 649.1,287.9 649.1,284.8C649.1,281.7 648.5,279 647.4,276.4C646.3,273.8 644.7,271.6 642.7,269.7C640.8,267.8 638.5,266.4 635.8,265.4C633.2,264.3 630.5,263.8 627.6,263.8C624.7,263.8 622,264.3 619.3,265.4C616.7,266.4 614.5,267.9 612.5,269.7C610.6,271.6 609,273.8 607.9,276.4C606.8,279 606.2,281.8 606.2,284.8ZM585.6,284.8C585.6,279.2 586.6,273.9 588.7,269.1C590.8,264.2 593.7,259.9 597.4,256.3C601.1,252.7 605.5,249.8 610.6,247.8C615.8,245.7 621.5,244.7 627.6,244.7C633.7,244.7 639.4,245.7 644.5,247.8C649.7,249.8 654.1,252.6 657.8,256.3C661.6,259.9 664.5,264.2 666.6,269.1C668.7,273.9 669.7,279.2 669.7,284.8C669.7,290.4 668.7,295.7 666.6,300.6C664.5,305.4 661.6,309.7 657.8,313.3C654.1,316.9 649.7,319.8 644.5,321.9C639.3,323.9 633.7,324.9 627.6,324.9C621.4,324.9 615.7,323.9 610.6,321.9C605.5,319.8 601.1,317 597.4,313.3C593.7,309.7 590.8,305.4 588.7,300.6C586.6,295.7 585.6,290.5 585.6,284.8ZM711,244.8L711,324.8L690,324.8L690,244.8L711,244.8ZM417,244.8L417,324.8L396,324.8L396,244.8L417,244.8ZM733,324.8L733,244.8L753,244.8L792,293.7L792,244.8L813,244.8L813,324.8L792.8,324.8L754,275.9L754,324.8L733,324.8Z" style="fill:white;fill-rule:nonzero;"/>
    <path d="M217.9,249.4C224.9,259.2 228.6,271 228.5,282.9C228.5,294.6 224.7,306.4 217.9,315.9L232.4,326.9C241.6,314.2 246.7,298.6 246.7,282.9C246.8,266.3 241.3,250 231.3,236.8L223,244.3L217.9,249.4Z" style="fill:white;"/>
    <path d="M245.4,336.8L196.6,299.7C200.1,295.1 202.1,289.6 202.4,283.8C202.6,278 201.1,272.4 198,267.5L221.4,246.4L245.8,223.5C247.4,222 247.5,219.4 245.9,217.8L242.5,214.4C225.1,196.8 201.7,186.5 177,185.7L177.1,172.3C177.2,171.4 177.1,170.5 176.9,169.6C176.6,168.7 176.2,167.9 175.6,167.2C175,166.5 174.3,166 173.4,165.6C172.6,165.2 171.7,165 170.8,165C169.9,165 169,165.2 168.2,165.6C167.4,166 166.6,166.5 166,167.2C165.4,167.9 164.9,168.7 164.7,169.5C164.4,170.4 164.3,171.3 164.5,172.2L164.4,186C158.5,186.6 152.7,187.7 147,189.4L147.1,172.2C147.2,171.3 147.1,170.4 146.9,169.5C146.6,168.6 146.2,167.8 145.6,167.1C145,166.4 144.3,165.9 143.4,165.5C142.6,165.1 141.7,164.9 140.8,164.9C139.9,164.9 139,165.1 138.2,165.5C137.4,165.9 136.6,166.4 136,167.1C135.4,167.8 134.9,168.6 134.7,169.4C134.4,170.3 134.3,171.2 134.5,172.1L134.2,194.1C114.1,203.1 97.6,218.7 87.6,238.3C77.6,257.9 74.4,280.4 78.8,302C83.2,323.6 94.8,343.1 111.7,357.2C128.6,371.3 149.9,379.3 171.8,379.7L242.8,380C245,380 246.8,378.2 246.8,376L246.8,340.1C246.9,338.8 246.4,337.6 245.4,336.8ZM173.3,362.4C155.8,362.3 138.8,356.4 125,345.8C111.2,335.1 101.3,320 96.8,303.1C92.3,286.2 93.6,268.2 100.3,252.1C107.1,236 118.9,222.5 134.1,213.7L134,239.9C133.9,240.8 134,241.7 134.2,242.6C134.5,243.5 134.9,244.3 135.5,245C136.1,245.7 136.8,246.2 137.7,246.6C138.5,247 139.4,247.2 140.3,247.2C141.2,247.2 142.1,247 142.9,246.6C143.7,246.2 144.5,245.7 145.1,245C145.7,244.3 146.2,243.5 146.4,242.7C146.7,241.8 146.8,240.9 146.6,240L146.7,207.9C155.4,204.7 164.7,203.2 174,203.2C191.2,203.2 207.9,208.9 221.5,219.2C222.5,220 222.6,221.4 221.7,222.3L184.5,256.4C181.1,255 177.4,254.2 173.8,254.2C169.7,254.2 165.7,255 161.9,256.7C158.1,258.4 154.8,260.9 152.2,264C149.5,267.1 147.5,270.8 146.3,274.6C145.1,278.6 144.8,282.7 145.4,286.7C146,290.8 147.4,294.7 149.6,298.1C151.8,301.6 154.8,304.5 158.1,306.8C161.6,309 165.5,310.5 169.5,311.1C173.6,311.7 177.7,311.4 181.6,310.2L229.1,346.3C229.6,346.7 229.9,347.3 229.9,347.9L229.8,360.6C229.8,361.7 228.9,362.6 227.8,362.6L173.3,362.4ZM184.9,282.8C184.9,285 184.2,287.2 183,289.1C181.7,291 180,292.4 177.9,293.3C175.8,294.2 173.5,294.4 171.4,293.9C169.3,293.4 167.2,292.4 165.6,290.8C164,289.2 162.9,287.2 162.5,285C162.1,282.8 162.3,280.5 163.2,278.5C164.1,276.4 165.5,274.7 167.4,273.4C169.3,272.2 171.5,271.5 173.7,271.5C176.7,271.5 179.6,272.7 181.6,274.9C183.8,276.9 184.9,279.7 184.9,282.8Z" style="fill:white;"/>
</svg>
