<svg width="1073" height="192" viewBox="0 0 1073 192" fill="none" xmlns="http://www.w3.org/2000/svg">
<path d="M330.501 187.875V45.3421H290.166V3.54242H416.07V45.352H375.735V187.885H330.511L330.501 187.875Z" fill="#D3F0ED"/>
<path d="M0 96.4459C0 39.2348 43.7595 0.117462 99.0108 0.117462C132.259 0.117462 162.329 13.5591 181.64 42.4121L141.79 63.1882C131.031 48.5192 117.095 40.6997 99.4958 40.6997C68.4454 40.6997 46.6894 64.9006 46.6894 96.6834C46.6894 128.466 70.4053 152.182 98.0309 152.182C120.767 152.182 137.148 138.493 140.078 120.399V120.152H101.456V85.4392H190.687V93.2587C190.687 153.4 154.747 191.052 97.5459 191.052C43.5121 191.052 0 152.182 0 96.4459Z" fill="#D3F0ED"/>
<path d="M221.709 187.875V3.54242H266.934V187.875H221.709Z" fill="#D3F0ED"/>
<path d="M814.683 187.875V3.54242H859.908V187.875H814.683Z" fill="#D3F0ED"/>
<path d="M1028.2 3.54242H1072.46V187.875H1035.79L943.377 71.7503L944.109 187.875H899.617V3.54242H937.27L1029.68 118.935L1028.21 3.54242H1028.2Z" fill="#D3F0ED"/>
<path d="M525.642 149.254C497.531 149.254 473.815 127.25 473.815 95.7147C473.815 65.8917 496.551 42.1759 526.137 42.1759C540.707 42.1759 553.426 47.6891 562.68 56.8152C567.144 42.5619 574.093 29.2291 583.328 17.3118C567.154 6.51297 547.477 0.366241 526.374 0.366241C472.103 0.366241 427.116 40.9485 427.116 95.4673C427.116 152.678 472.34 191.053 525.642 191.053C546.923 191.053 566.749 185.095 583.011 174.504C573.885 162.596 567.006 149.184 562.601 134.753C553.208 143.839 540.301 149.254 525.642 149.254Z" fill="#D3F0ED"/>
<path d="M687.751 0.366241C653.692 0.366241 623.295 16.3517 605.369 41.7304C594.738 56.7954 588.493 75.1663 588.493 95.4673C588.493 115.768 594.719 135.307 605.27 150.352C623.156 175.86 653.494 191.053 687.019 191.053C741.537 191.053 786.524 151.936 786.524 95.9523C786.524 39.9686 741.785 0.366241 687.751 0.366241ZM687.019 149.254C658.908 149.254 635.192 127.25 635.192 95.7147C635.192 65.8917 657.928 42.1759 687.514 42.1759C717.099 42.1759 739.835 65.6443 739.835 95.9622C739.835 126.28 717.099 149.254 687.028 149.254H687.019Z" fill="#D3F0ED"/>
</svg>
