<?xml version="1.0" encoding="UTF-8" standalone="no"?>
<!DOCTYPE svg PUBLIC "-//W3C//DTD SVG 1.1//EN" "http://www.w3.org/Graphics/SVG/1.1/DTD/svg11.dtd">
<svg width="100%" height="100%" viewBox="0 0 2112 1465" version="1.1" xmlns="http://www.w3.org/2000/svg" xmlns:xlink="http://www.w3.org/1999/xlink" xml:space="preserve" xmlns:serif="http://www.serif.com/" style="fill-rule:evenodd;clip-rule:evenodd;stroke-linejoin:round;stroke-miterlimit:2;">
    <g>
        <g>
            <path d="M112.4,636.6L112.4,828.3C112.4,840.5 118.9,851.8 129.5,857.9L295.5,953.7C306.1,959.8 319.1,959.8 329.7,953.7L495.7,857.9C506.3,851.8 512.8,840.5 512.8,828.3L512.8,636.6C512.8,624.4 506.3,613.1 495.7,607L329.7,511.2C319.1,505.1 306.1,505.1 295.5,511.2L129.5,607C119,613.1 112.4,624.4 112.4,636.6Z" style="fill:rgb(33,49,71);fill-rule:nonzero;"/>
            <g>
                <g>
                    <g>
                        <path d="M348.9,769.6L325.2,834.5C324.5,836.3 324.5,838.3 325.2,840.1L365.9,951.8L413,924.6L356.5,769.6C355.2,766 350.2,766 348.9,769.6Z" style="fill:rgb(18,170,255);fill-rule:nonzero;"/>
                    </g>
                    <g>
                        <path d="M396.3,660.4C395,656.8 390,656.8 388.7,660.4L365,725.3C364.3,727.1 364.3,729.1 365,730.9L431.7,913.8L478.8,886.6L396.3,660.4Z" style="fill:rgb(18,170,255);fill-rule:nonzero;"/>
                    </g>
                </g>
            </g>
            <path d="M312.6,518.3C313.8,518.3 314.9,518.6 316,519.2L495.6,622.9C497.7,624.1 499,626.3 499,628.7L499,836.1C499,838.5 497.7,840.7 495.6,841.9L316,945.7C315,946.3 313.8,946.6 312.6,946.6C311.4,946.6 310.3,946.3 309.2,945.7L129.7,842C127.6,840.8 126.3,838.6 126.3,836.2L126.3,628.7C126.3,626.3 127.6,624.1 129.7,622.9L309.3,519.2C310.3,518.6 311.5,518.3 312.6,518.3M312.6,488C306.2,488 299.8,489.7 294.1,493L114.5,596.7C103.1,603.3 96,615.5 96,628.7L96,836.1C96,849.3 103.1,861.6 114.5,868.2L294.1,971.9C299.8,975.2 306.2,976.9 312.6,976.9C319,976.9 325.4,975.2 331.1,971.9L510.7,868.2C522.2,861.6 529.2,849.4 529.2,836.1L529.2,628.7C529.2,615.5 522.1,603.2 510.7,596.6L331.2,493C325.4,489.7 319,488 312.6,488Z" style="fill:rgb(157,204,237);fill-rule:nonzero;"/>
            <path d="M193.9,914L210.4,868.8L243.6,896.4L212.6,924.8L193.9,914Z" style="fill:rgb(33,49,71);fill-rule:nonzero;"/>
            <g>
                <path d="M297.5,613.9L252,613.9C248.6,613.9 245.5,616 244.4,619.2L146.8,886.8L193.9,914L301.4,619.3C302.3,616.7 300.4,613.9 297.5,613.9Z" style="fill:white;fill-rule:nonzero;"/>
                <path d="M377.2,613.9L331.7,613.9C328.3,613.9 325.2,616 324.1,619.2L212.6,924.8L259.7,952L381,619.4C382,616.7 380,613.9 377.2,613.9Z" style="fill:white;fill-rule:nonzero;"/>
            </g>
        </g>
        <g>
            <path d="M723.1,669.6C727.6,669.6 731.5,670.5 734.6,672.4C737.7,674.3 740.8,677.9 743.8,683.3L803.2,791.1C803.8,792.3 803.9,793.3 803.6,794.1C803.3,794.9 802.4,795.3 801,795.3L778.2,795.3C776.2,795.3 774.8,794.5 774.1,793L761.4,769.9L677.1,769.9L664.7,793C663.9,794.6 662.5,795.3 660.6,795.3L637.3,795.3C635.7,795.3 634.8,794.9 634.5,794.1C634.2,793.3 634.3,792.3 634.9,791.1L693.8,683.3C696.8,677.9 699.7,674.3 702.6,672.4C705.5,670.5 708.8,669.6 712.6,669.6L723.1,669.6ZM688.2,748.9L750,748.9L721.5,696.3C721,695.5 720.4,695 719.5,695L718.4,695C717.6,695 716.9,695.4 716.4,696.3L688.2,748.9Z" style="fill:white;fill-rule:nonzero;"/>
            <path d="M933.7,669.6C947.5,669.6 957.3,672.7 963.3,678.9C969.3,685.1 972.3,694.3 972.3,706.5L972.3,716.7C972.3,727 970.2,735.1 966,741.1C961.8,747.1 955,750.9 945.5,752.6L976.2,790.6C976.8,791.2 977,792.1 976.7,793.3C976.5,794.5 975.5,795.1 973.8,795.1L950.7,795.1C949.1,795.1 948.1,794.9 947.5,794.6C946.9,794.2 946.3,793.6 945.7,792.8L917.3,755.5L859.3,755.5L859.3,791.2C859.3,793.8 858,795.1 855.4,795.1L836,795.1C833.2,795.1 831.9,793.8 831.9,791.2L831.9,675C831.9,671.4 833.7,669.6 837.3,669.6L933.7,669.6ZM859.4,733.7L928.1,733.7C934.2,733.7 938.5,732.4 941,729.8C943.5,727.2 944.8,723.2 944.8,717.8L944.8,710.3C944.8,704.9 943.5,700.9 941,698.3C938.5,695.7 934.2,694.4 928.1,694.4L861.7,694.4C860.1,694.4 859.4,695.1 859.4,696.6L859.4,733.7Z" style="fill:white;fill-rule:nonzero;"/>
            <path d="M1122.4,669.6C1134.7,669.6 1143.5,672.1 1148.7,677C1153.9,681.9 1156.5,689.3 1156.5,699.2L1156.5,707.8C1156.5,717.8 1152.7,725.4 1145,730.6C1153.2,735.4 1157.4,743.1 1157.4,753.7L1157.4,764.1C1157.4,768.9 1156.9,773.2 1155.8,777C1154.7,780.8 1153,784.1 1150.5,786.8C1148,789.5 1144.8,791.6 1140.7,793C1136.6,794.4 1131.6,795.2 1125.6,795.2L1019,795.2C1015.4,795.2 1013.6,793.4 1013.6,789.8L1013.6,675C1013.6,671.4 1015.4,669.6 1019,669.6L1122.4,669.6ZM1041.1,721.8L1114.7,721.8C1120.7,721.8 1124.7,720.9 1126.9,719.1C1129.1,717.3 1130.1,714.7 1130.1,711.2L1130.1,705.1C1130.1,701.4 1129.1,698.7 1127,696.9C1124.9,695.2 1121.5,694.3 1116.9,694.3L1043.5,694.3C1041.9,694.3 1041.2,695.1 1041.2,696.6L1041.2,721.8L1041.1,721.8ZM1041.1,741.4L1041.1,768.1C1041.1,769.7 1041.9,770.4 1043.4,770.4L1117,770.4C1121.8,770.4 1125.2,769.5 1127.2,767.8C1129.2,766.1 1130.3,763.3 1130.3,759.5L1130.3,752.7C1130.3,749 1129.2,746.2 1127,744.3C1124.8,742.4 1120.7,741.4 1114.7,741.4L1041.1,741.4Z" style="fill:white;fill-rule:nonzero;"/>
            <path d="M1224.3,669.6C1226.9,669.6 1228.2,670.9 1228.2,673.5L1228.2,791.2C1228.2,793.8 1226.9,795.1 1224.3,795.1L1204.9,795.1C1202.1,795.1 1200.8,793.8 1200.8,791.2L1200.8,673.6C1200.8,671 1202.2,669.7 1204.9,669.7L1224.3,669.6Z" style="fill:white;fill-rule:nonzero;"/>
            <path d="M1412.3,669.6C1415.1,669.6 1416.4,670.9 1416.4,673.5L1416.4,691.1C1416.4,693.9 1415,695.2 1412.3,695.2L1356,695.2L1356,791.2C1356,793.8 1354.7,795.1 1352.1,795.1L1332.5,795.1C1329.9,795.1 1328.6,793.8 1328.6,791.2L1328.6,695.2L1272.3,695.2C1269.5,695.2 1268.2,693.8 1268.2,691.1L1268.2,673.5C1268.2,670.9 1269.6,669.6 1272.3,669.6L1412.3,669.6Z" style="fill:white;fill-rule:nonzero;"/>
            <path d="M1554.2,669.6C1568,669.6 1577.8,672.7 1583.8,678.9C1589.8,685.1 1592.8,694.3 1592.8,706.5L1592.8,716.7C1592.8,727 1590.7,735.1 1586.5,741.1C1582.3,747.1 1575.5,750.9 1566,752.6L1596.7,790.6C1597.3,791.2 1597.5,792.1 1597.2,793.3C1597,794.5 1596,795.1 1594.3,795.1L1571.2,795.1C1569.6,795.1 1568.6,794.9 1568,794.6C1567.4,794.2 1566.8,793.6 1566.2,792.8L1537.8,755.5L1479.8,755.5L1479.8,791.2C1479.8,793.8 1478.5,795.1 1475.9,795.1L1456.5,795.1C1453.7,795.1 1452.4,793.8 1452.4,791.2L1452.4,675C1452.4,671.4 1454.2,669.6 1457.8,669.6L1554.2,669.6ZM1480,733.7L1548.7,733.7C1554.8,733.7 1559.1,732.4 1561.6,729.8C1564.1,727.2 1565.4,723.2 1565.4,717.8L1565.4,710.3C1565.4,704.9 1564.1,700.9 1561.6,698.3C1559.1,695.7 1554.8,694.4 1548.7,694.4L1482.3,694.4C1480.7,694.4 1480,695.1 1480,696.6L1480,733.7Z" style="fill:white;fill-rule:nonzero;"/>
            <path d="M1655.1,669.6C1657.7,669.6 1659,670.9 1659,673.5L1659,745.1C1659,749.9 1659.4,753.9 1660.2,757C1661,760.2 1662.3,762.7 1664.1,764.5C1665.9,766.4 1668.3,767.7 1671.4,768.4C1674.5,769.2 1678.3,769.6 1683,769.6L1732.7,769.6C1737.4,769.6 1741.2,769.2 1744.3,768.4C1747.4,767.6 1749.8,766.3 1751.6,764.5C1753.4,762.6 1754.7,760.1 1755.4,757C1756.1,753.8 1756.5,749.9 1756.5,745.1L1756.5,673.5C1756.5,670.9 1757.8,669.6 1760.4,669.6L1780,669.6C1782.6,669.6 1783.9,670.9 1783.9,673.5L1783.9,747.8C1783.9,756.4 1783,763.7 1781.2,769.8C1779.4,775.8 1776.5,780.7 1772.5,784.5C1768.5,788.3 1763.3,791 1756.9,792.7C1750.5,794.4 1742.8,795.2 1733.7,795.2L1682,795.2C1672.9,795.2 1665.2,794.4 1658.9,792.7C1652.6,791 1647.4,788.3 1643.4,784.5C1639.4,780.7 1636.5,775.8 1634.6,769.8C1632.7,763.8 1631.8,756.4 1631.8,747.8L1631.8,673.5C1631.8,670.9 1633.2,669.6 1635.9,669.6L1655.1,669.6Z" style="fill:white;fill-rule:nonzero;"/>
            <path d="M1861,669.6C1863.6,669.6 1865.9,669.8 1867.8,670.1C1869.7,670.5 1871.4,671.1 1872.8,672.2C1874.2,673.2 1875.5,674.6 1876.7,676.3C1877.8,678 1879,680.3 1880.2,683.2L1917.5,769.3C1918,770.4 1918.8,770.9 1920,770.9L1922.2,770.9C1923.4,770.9 1924.2,770.4 1924.7,769.3L1962,683.2C1963.2,680.3 1964.4,678 1965.5,676.3C1966.6,674.6 1967.9,673.2 1969.4,672.2C1970.8,671.2 1972.5,670.5 1974.3,670.1C1976.2,669.7 1978.4,669.6 1981,669.6L2000.2,669.6C2006.4,669.6 2010.6,671 2012.8,673.8C2015,676.6 2016,681.4 2016,688.2L2016,791.2C2016,793.8 2014.6,795.1 2011.9,795.1L1993.6,795.1C1991,795.1 1989.7,793.8 1989.7,791.2L1989.7,697.5C1989.7,696.3 1989.2,695.7 1988.3,695.7L1986.7,695.7C1985.5,695.7 1984.7,696.2 1984.4,697.1L1948.2,777.5C1946.8,780.7 1945.3,783.5 1943.8,785.7C1942.3,787.9 1940.7,789.7 1939,791.2C1937.3,792.6 1935.3,793.7 1933.1,794.3C1930.9,794.9 1928.3,795.2 1925.3,795.2L1916.7,795.2C1913.7,795.2 1911.1,794.9 1908.9,794.3C1906.7,793.7 1904.7,792.7 1903,791.2C1901.3,789.8 1899.6,787.9 1898.2,785.7C1896.7,783.5 1895.2,780.8 1893.8,777.5L1857.6,697.1C1857.2,696.1 1856.5,695.7 1855.3,695.7L1853.7,695.7C1852.7,695.7 1852.3,696.3 1852.3,697.5L1852.3,791.2C1852.3,793.8 1851,795.1 1848.4,795.1L1830.1,795.1C1827.3,795.1 1826,793.8 1826,791.2L1826,688.2C1826,681.4 1827.1,676.6 1829.2,673.8C1831.4,671 1835.6,669.6 1841.9,669.6L1861,669.6Z" style="fill:white;fill-rule:nonzero;"/>
        </g>
    </g>
</svg>
