<?xml version="1.0" encoding="UTF-8" standalone="no"?>
<!DOCTYPE svg PUBLIC "-//W3C//DTD SVG 1.1//EN" "http://www.w3.org/Graphics/SVG/1.1/DTD/svg11.dtd">
<svg width="100%" height="100%" viewBox="0 0 700 159" version="1.1" xmlns="http://www.w3.org/2000/svg" xmlns:xlink="http://www.w3.org/1999/xlink" xml:space="preserve" xmlns:serif="http://www.serif.com/" style="fill-rule:evenodd;clip-rule:evenodd;stroke-linejoin:round;stroke-miterlimit:2;">
    <path d="M0.162,79.261C0.162,122.891 35.531,158.259 79.161,158.259C122.791,158.259 158.162,122.891 158.162,79.261C158.162,35.63 122.791,0.262 79.161,0.262C35.531,0.262 0.162,35.63 0.162,79.261Z" style="fill:rgb(12,12,79);"/>
    <path d="M44.316,60.649L46.266,54.625C46.663,53.399 47.63,52.446 48.86,52.07L54.914,50.208C55.752,49.952 55.759,48.77 54.928,48.5L48.901,46.55C47.678,46.154 46.724,45.186 46.346,43.957L44.486,37.902C44.23,37.066 43.048,37.057 42.778,37.891L40.828,43.916C40.432,45.139 39.465,46.092 38.235,46.471L32.181,48.33C31.343,48.588 31.333,49.768 32.167,50.038L38.194,51.988C39.417,52.384 40.371,53.354 40.749,54.584L42.609,60.636C42.864,61.474 44.047,61.483 44.316,60.649Z" style="fill:rgb(250,250,250);"/>
    <path d="M140.01,57.143C137.515,54.352 133.619,52.78 129.832,52.136C126.015,51.517 122.012,51.574 118.244,52.244C110.619,53.534 103.692,56.691 97.65,60.586C94.513,62.497 91.837,64.709 89.065,66.962C87.73,68.101 86.512,69.314 85.244,70.51L81.778,73.958C78.013,77.894 74.302,81.478 70.711,84.45C67.106,87.407 63.735,89.653 60.413,91.222C57.094,92.799 53.542,93.726 48.912,93.875C44.322,94.037 38.893,93.208 33.085,91.841C27.246,90.48 21.114,88.54 14.262,86.871C16.653,93.503 20.254,99.364 24.876,104.722C29.552,109.987 35.392,114.786 42.894,117.942C50.287,121.168 59.578,122.326 68.265,120.579C76.976,118.902 84.619,114.871 90.798,110.21C96.993,105.501 102.004,100.137 106.229,94.56C107.395,93.019 108.012,92.157 108.856,90.952L111.189,87.497C112.81,85.359 114.286,82.926 115.891,80.808C119.037,76.373 122.138,71.943 125.742,67.861C127.556,65.791 129.469,63.811 131.727,61.908C132.854,60.98 134.07,60.071 135.418,59.252C136.786,58.368 138.231,57.677 140.01,57.143Z" style="fill:rgb(236,121,107);"/>
    <path d="M140.01,57.143C137.329,50.377 132.344,44.681 125.654,40.478C119.003,36.322 109.767,34.201 100.615,36.009C96.093,36.883 91.712,38.567 87.868,40.809C84.041,43.042 80.612,45.73 77.643,48.614C76.161,50.061 74.816,51.57 73.48,53.088L70.016,57.504L64.666,64.613C57.846,73.759 50.501,84.478 38.448,87.655C26.616,90.772 21.484,88.011 14.262,86.87C15.583,90.279 17.219,93.59 19.436,96.503C21.612,99.474 24.183,102.265 27.378,104.657C28.993,105.806 30.698,106.94 32.592,107.902C34.477,108.831 36.51,109.649 38.679,110.265C42.995,111.448 47.854,111.862 52.559,111.226C57.266,110.598 61.765,109.106 65.698,107.125C69.659,105.163 73.11,102.773 76.192,100.251C82.317,95.164 87.082,89.543 91.107,83.862C93.131,81.021 94.969,78.127 96.668,75.232L98.668,71.785C99.28,70.778 99.898,69.764 100.527,68.82C103.061,65.027 105.54,61.986 108.551,59.703C111.52,57.361 115.655,55.631 121.18,55.229C126.682,54.822 133.034,55.574 140.01,57.143Z" style="fill:rgb(250,250,250);"/>
    <path d="M110.243,113.359C110.243,118.328 114.274,122.359 119.243,122.359C124.213,122.359 128.238,118.328 128.238,113.359C128.238,108.39 124.213,104.359 119.243,104.359C114.274,104.359 110.243,108.39 110.243,113.359Z" style="fill:rgb(236,121,107);"/>
    <path d="M690.596,57.171L690.596,48.083C690.596,47.723 690.304,47.431 689.944,47.431L638.164,47.431C637.804,47.431 637.512,47.723 637.512,48.083L637.512,57.171L658.556,57.171L658.556,115.961L669.551,115.961L669.551,57.171L690.596,57.171Z" style="fill:white;fill-rule:nonzero;"/>
    <path d="M583.395,47.431C583.034,47.431 582.742,47.723 582.742,48.083L582.742,115.308C582.742,115.668 583.034,115.961 583.395,115.961L626.969,115.961C627.329,115.961 627.621,115.668 627.621,115.308L627.621,106.317L593.737,106.317L593.737,84.78L621.732,84.78L621.732,75.329L593.737,75.329L593.737,57.074L625.208,57.074L625.208,48.083C625.208,47.723 624.916,47.431 624.555,47.431L583.395,47.431Z" style="fill:white;fill-rule:nonzero;"/>
    <path d="M558.127,115.562L558.364,115.961L566.81,115.961C567.171,115.961 567.463,115.668 567.463,115.308L567.463,48.083C567.463,47.723 567.171,47.431 566.81,47.431L556.661,47.431L556.661,94.891C554.899,92.086 552.853,88.998 550.523,85.628C547.556,81.241 544.364,76.792 540.947,72.279C537.595,67.702 534.178,63.286 530.696,59.03C527.275,54.706 524.044,50.925 521.001,47.688L520.76,47.431L512.811,47.431C512.45,47.431 512.158,47.723 512.158,48.083L512.158,115.308C512.158,115.668 512.45,115.961 512.811,115.961L522.96,115.961L522.96,65.118C524.348,66.757 525.825,68.573 527.392,70.567C529.509,73.262 531.691,76.15 533.939,79.232L533.941,79.235L533.944,79.238C536.189,82.254 538.436,85.399 540.683,88.673L540.689,88.682C543.001,91.958 545.216,95.201 547.335,98.411L547.337,98.414L547.34,98.417C549.457,101.561 551.413,104.608 553.208,107.557L553.211,107.562L553.215,107.568C555.078,110.523 556.716,113.188 558.127,115.562Z" style="fill:white;fill-rule:nonzero;"/>
    <path d="M498.878,48.796L499.127,48.523C499.509,48.104 499.212,47.431 498.645,47.431L486.607,47.431L486.363,47.714C484.765,49.567 482.78,51.745 480.404,54.249L480.404,54.25C478.09,56.692 475.615,59.263 472.979,61.964C470.344,64.663 467.676,67.363 464.977,70.062C462.818,72.17 460.803,74.113 458.932,75.891L458.932,47.431L448.59,47.431C448.23,47.431 447.938,47.723 447.938,48.083L447.938,115.308C447.938,115.668 448.23,115.961 448.59,115.961L458.932,115.961L458.932,84.871C461.202,86.358 463.523,88.097 465.894,90.091L465.898,90.094L465.901,90.097C468.773,92.458 471.583,95.044 474.331,97.856L474.337,97.863L474.344,97.869C477.153,100.615 479.803,103.52 482.294,106.585L482.299,106.592C484.789,109.593 486.989,112.59 488.9,115.584L489.14,115.961L500.874,115.961C501.376,115.961 501.69,115.418 501.44,114.983L501.3,114.739C499.539,111.674 497.328,108.457 494.672,105.087C492.083,101.722 489.301,98.423 486.326,95.189C483.351,91.955 480.31,88.914 477.203,86.066C474.389,83.487 471.7,81.272 469.137,79.425C471.317,77.297 473.628,75.012 476.07,72.571C478.775,69.865 481.48,67.128 484.185,64.358C486.955,61.524 489.596,58.786 492.109,56.145L492.112,56.141L492.116,56.138C494.627,53.433 496.881,50.986 498.878,48.796Z" style="fill:white;fill-rule:nonzero;"/>
    <path d="M385.525,46.917C385.165,46.917 384.873,47.209 384.873,47.569L384.873,115.349C384.873,115.71 385.165,116.002 385.525,116.002L394.842,116.002L394.842,91.081L408.452,91.081C409.983,92.915 411.476,94.833 412.933,96.836L412.938,96.843L412.944,96.851C415.326,99.974 417.527,103.232 419.548,106.626L419.55,106.629L419.552,106.633C421.382,109.636 422.979,112.602 424.344,115.531L424.563,116.002L435.588,116.002C436.061,116.002 436.376,115.515 436.18,115.085C434.912,112.307 433.538,109.586 432.012,106.936C429.938,103.232 427.663,99.564 425.188,95.934C423.773,93.859 422.328,91.844 420.853,89.888C424.965,88.63 428.219,86.357 430.572,83.057L430.574,83.054C433.399,79.061 434.799,74.364 434.799,68.999C434.799,65.312 434.158,61.939 432.861,58.891C431.559,55.799 429.6,53.234 426.99,51.211C424.398,49.177 421.205,47.883 417.444,47.303C416.567,47.141 415.661,47.044 414.727,47.011C413.815,46.949 413.019,46.917 412.342,46.917C409.484,46.917 406.625,46.916 403.767,46.916C397.686,46.915 391.606,46.915 385.525,46.917ZM424.643,68.999C424.643,70.779 424.347,72.531 423.751,74.259C423.169,75.917 422.239,77.371 420.954,78.627C419.736,79.817 418.13,80.661 416.095,81.133C415.45,81.279 414.756,81.383 414.01,81.443L414.008,81.443C413.275,81.504 412.627,81.534 412.061,81.534L394.842,81.534L394.842,56.464L412.061,56.464C412.627,56.464 413.275,56.494 414.008,56.555L414.025,56.556L414.043,56.557C414.768,56.586 415.44,56.687 416.063,56.857L416.083,56.863L416.104,56.867C418.131,57.308 419.732,58.148 420.947,59.364L420.95,59.367L420.954,59.37C422.237,60.625 423.167,62.093 423.751,63.784L423.751,63.786L423.752,63.788C424.346,65.482 424.643,67.218 424.643,68.999Z" style="fill:white;"/>
    <path d="M360.412,106.913L360.414,106.919C361.381,109.693 362.413,112.531 363.51,115.433L363.709,115.961L374.738,115.961C375.191,115.961 375.506,115.511 375.351,115.085C372.942,108.466 370.51,101.855 368.029,95.263C365.775,89.209 363.553,83.476 361.362,78.063C359.236,72.651 357.109,67.495 354.982,62.596C352.848,57.617 350.602,52.687 348.263,47.801C348.154,47.575 347.926,47.431 347.675,47.431L338.878,47.431C338.627,47.431 338.398,47.575 338.29,47.801C335.95,52.687 333.705,57.617 331.571,62.596C329.444,67.494 327.286,72.648 325.096,78.059L325.094,78.063L325.093,78.067C322.967,83.478 320.777,89.209 318.524,95.263C316.042,101.855 313.61,108.466 311.201,115.085C311.046,115.511 311.361,115.961 311.814,115.961L322.372,115.961L322.373,115.96L322.579,115.96L322.821,115.7C325.368,112.966 328.215,110.282 331.363,107.65L331.366,107.648L331.369,107.645C334.529,104.947 337.824,102.445 341.253,100.138L341.261,100.133L341.268,100.127C344.646,97.74 348.046,95.599 351.467,93.701L351.475,93.697C352.707,92.996 353.92,92.342 355.114,91.737L357.422,98.33L357.424,98.335L357.424,98.335C358.452,101.227 359.448,104.086 360.412,106.913ZM348.547,74.406L348.551,74.417C349.48,76.769 350.409,79.16 351.338,81.591C351.269,81.621 351.198,81.653 351.126,81.686C347.857,83.175 344.343,85.1 340.586,87.456C336.989,89.712 333.42,92.163 329.88,94.809L331.379,90.528C333.362,84.965 335.345,79.592 337.328,74.412C339.151,69.739 341.05,65.245 343.024,60.929C344.94,65.243 346.781,69.736 348.547,74.406Z" style="fill:white;"/>
    <path d="M313.893,57.171L313.893,48.083C313.893,47.723 313.601,47.431 313.24,47.431L261.461,47.431C261.101,47.431 260.809,47.723 260.809,48.083L260.809,57.171L281.853,57.171L281.853,115.308C281.853,115.668 282.145,115.961 282.506,115.961L292.196,115.961C292.556,115.961 292.848,115.668 292.848,115.308L292.848,57.171L313.893,57.171Z" style="fill:white;fill-rule:nonzero;"/>
    <path d="M213.298,115.127L213.295,115.126C209.307,113.426 205.99,110.999 203.36,107.843L203.357,107.839L203.354,107.836C200.751,104.64 199.06,100.872 198.275,96.552C198.236,96.336 198.285,96.113 198.412,95.934C198.539,95.755 198.733,95.635 198.95,95.6L207.721,94.218C208.136,94.153 208.533,94.413 208.637,94.82C209.703,98.962 211.897,102.176 215.223,104.506C218.599,106.816 222.58,107.983 227.2,107.983C230.197,107.983 232.875,107.52 235.246,106.609C237.644,105.667 239.506,104.346 240.865,102.662C242.202,101.006 242.877,99.045 242.877,96.74C242.877,95.309 242.623,94.137 242.152,93.196C242.148,93.187 242.144,93.179 242.14,93.17C241.682,92.167 241.042,91.329 240.217,90.647C240.209,90.641 240.201,90.634 240.194,90.627C239.366,89.888 238.415,89.263 237.338,88.754C236.236,88.234 235.087,87.805 233.89,87.467L233.879,87.464L216.384,82.268C214.436,81.684 212.553,80.953 210.735,80.076L210.724,80.071C208.878,79.148 207.224,78.008 205.766,76.649L205.762,76.645L205.759,76.643C204.281,75.232 203.109,73.555 202.242,71.62L202.24,71.615C201.358,69.615 200.931,67.29 200.931,64.661C200.931,60.446 202.02,56.807 204.235,53.787L204.236,53.786C206.46,50.765 209.459,48.469 213.203,46.893C216.943,45.318 221.138,44.556 225.776,44.588C230.476,44.621 234.704,45.464 238.444,47.136C242.213,48.775 245.339,51.142 247.807,54.235C250.313,57.335 251.984,61.035 252.833,65.312C252.876,65.528 252.83,65.751 252.706,65.932C252.582,66.113 252.39,66.237 252.174,66.274L243.165,67.847C242.951,67.885 242.732,67.835 242.555,67.71C242.377,67.585 242.257,67.395 242.221,67.181C241.766,64.512 240.756,62.248 239.202,60.366L239.193,60.355C237.657,58.427 235.731,56.95 233.401,55.921L233.393,55.918C231.058,54.856 228.486,54.305 225.666,54.275L225.665,54.275C222.962,54.244 220.546,54.674 218.404,55.549C216.256,56.426 214.58,57.637 213.344,59.167L213.339,59.173C212.126,60.646 211.523,62.337 211.523,64.279C211.523,66.209 212.073,67.697 213.114,68.822C214.237,70.003 215.618,70.958 217.27,71.679C219.021,72.398 220.72,72.99 222.369,73.457L222.373,73.458L235.429,77.222C236.951,77.643 238.689,78.223 240.641,78.959C242.684,79.717 244.654,80.785 246.55,82.158C248.502,83.539 250.105,85.382 251.364,87.668C252.658,89.985 253.278,92.865 253.278,96.263C253.278,99.679 252.588,102.749 251.186,105.453C249.826,108.14 247.916,110.397 245.466,112.218L245.46,112.222C243.024,114 240.203,115.342 237.009,116.255C233.813,117.2 230.399,117.67 226.771,117.67C221.816,117.67 217.32,116.828 213.298,115.127Z" style="fill:white;fill-rule:nonzero;"/>
</svg>
