<svg width="48" height="41" viewBox="0 0 48 41" fill="none" xmlns="http://www.w3.org/2000/svg">
<g id="Img - Compound logo" clip-path="url(#clip0_352_1251)">
<g id="Group">
<g id="Clip path group">
<mask id="mask0_352_1251" style="mask-type:luminance" maskUnits="userSpaceOnUse" x="4" y="0" width="40" height="41">
<g id="426b98c0-408a-4ac5-b00d-556ce10f4527_comp-lc7kvtc711">
<path id="Vector" d="M43.9682 0.5V40.393H4.0752V0.5H43.9682Z" fill="white"/>
</g>
</mask>
<g mask="url(#mask0_352_1251)">
<g id="Group_2">
<path id="Vector_2" d="M24.0752 0.5C28.0308 0.5 31.8976 1.67298 35.1866 3.87061C38.4756 6.06824 41.039 9.19181 42.5528 12.8463C44.0665 16.5009 44.4626 20.5222 43.6909 24.4018C42.9192 28.2814 41.0144 31.8451 38.2173 34.6421C35.4203 37.4392 31.8566 39.344 27.977 40.1157C24.0974 40.8874 20.076 40.4913 16.4215 38.9776C12.767 37.4638 9.64343 34.9004 7.4458 31.6114C5.24817 28.3224 4.0752 24.4556 4.0752 20.5C4.0752 15.1957 6.18233 10.1086 9.93306 6.35786C13.6838 2.60714 18.7709 0.5 24.0752 0.5Z" fill="#DFE225"/>
</g>
</g>
</g>
<path id="Vector_3" fill-rule="evenodd" clip-rule="evenodd" d="M16.228 26.6554C15.9561 26.4895 15.7316 26.2561 15.5762 25.978C15.4209 25.6999 15.34 25.3864 15.3413 25.0678V21.4593C15.3438 21.3223 15.3793 21.188 15.4447 21.0676C15.5472 20.8913 15.7149 20.7622 15.9116 20.7083C16.1083 20.6544 16.3183 20.6799 16.4964 20.7793L24.6409 25.5211C24.8734 25.6591 25.0659 25.8552 25.1996 26.0902C25.3333 26.3252 25.4035 26.5909 25.4034 26.8612V30.593C25.4068 30.7688 25.3565 30.9415 25.2593 31.088C25.1297 31.2974 24.9229 31.4472 24.6836 31.5051C24.4443 31.563 24.1918 31.5242 23.9809 31.3972L16.228 26.6554ZM28.3727 19.7892C28.6052 19.9272 28.7977 20.1233 28.9314 20.3583C29.0651 20.5933 29.1354 20.859 29.1352 21.1293V28.7171C29.1356 28.8258 29.1072 28.9326 29.0529 29.0267C28.9985 29.1208 28.9203 29.1989 28.8261 29.2529L27.0327 30.263C27.0246 30.2708 27.0149 30.2767 27.0042 30.2803C26.9936 30.2839 26.9822 30.2851 26.971 30.2838V26.0778C26.9687 25.808 26.8974 25.5432 26.764 25.3087C26.6305 25.0742 26.4393 24.8776 26.2085 24.7378L19.0541 20.4493V15.7075C19.0566 15.5705 19.0921 15.4361 19.1575 15.3158C19.26 15.1394 19.4276 15.0104 19.6243 14.9565C19.8211 14.9025 20.0311 14.928 20.2092 15.0275L28.3727 19.7892ZM31.9395 14.2015C32.1737 14.3375 32.3677 14.5332 32.5016 14.7686C32.6356 15.004 32.7047 15.2707 32.702 15.5415V26.6345C32.7026 26.7458 32.672 26.8549 32.6137 26.9497C32.5554 27.0444 32.4716 27.1208 32.372 27.1703L30.6811 28.077V20.3659C30.6808 20.1005 30.6123 19.8397 30.4823 19.6084C30.3523 19.3771 30.1651 19.1831 29.9385 19.0449L22.6191 14.6322V10.1369C22.6216 9.99998 22.657 9.86563 22.7224 9.74526C22.8249 9.56892 22.9926 9.43989 23.1893 9.38596C23.386 9.33203 23.5961 9.35752 23.7742 9.45694L31.9395 14.2015Z" fill="#242424"/>
</g>
</g>
<defs>
<clipPath id="clip0_352_1251">
<rect width="47.25" height="40" fill="white" transform="translate(0.450195 0.5)"/>
</clipPath>
</defs>
</svg>
