<svg width="48" height="41" viewBox="0 0 48 41" fill="none" xmlns="http://www.w3.org/2000/svg">
<g id="Frame" clip-path="url(#clip0_352_1207)">
<g id="Group">
<g id="Group_2">
<g id="Group_3">
<g id="Clip path group">
<mask id="mask0_352_1207" style="mask-type:luminance" maskUnits="userSpaceOnUse" x="4" y="0" width="41" height="41">
<g id="25bc51f6-5d78-4f04-8914-f96c9eefc501_comp-lc7kvtbd2">
<path id="Vector" d="M44.8749 0.109863V40.9095H4.0752V0.109863H44.8749Z" fill="white"/>
</g>
</mask>
<g mask="url(#mask0_352_1207)">
<g id="Group_4">
<path id="Vector_2" d="M24.0752 0.109863C28.0308 0.109863 31.8976 1.28284 35.1866 3.48047C38.4756 5.6781 41.039 8.80167 42.5528 12.4562C44.0665 16.1107 44.4626 20.132 43.6909 24.0117C42.9192 27.8913 41.0144 31.455 38.2173 34.252C35.4203 37.049 31.8566 38.9539 27.977 39.7256C24.0974 40.4973 20.076 40.1012 16.4215 38.5875C12.767 37.0737 9.64343 34.5103 7.4458 31.2213C5.24817 27.9323 4.0752 24.0655 4.0752 20.1099C4.0752 14.8055 6.18233 9.71846 9.93306 5.96773C13.6838 2.217 18.7709 0.109863 24.0752 0.109863Z" fill="#DFE225"/>
</g>
</g>
</g>
</g>
<g id="Group_5">
<path id="Vector_3" d="M29.0128 11.0986C29.2339 11.5954 29.2487 12.1597 29.0539 12.6673C28.859 13.175 28.4705 13.5845 27.9738 13.8058L16.7312 18.8115C16.4852 18.9211 16.22 18.9811 15.9507 18.9881C15.6815 18.9951 15.4135 18.9491 15.1621 18.8526C14.9106 18.756 14.6807 18.6109 14.4853 18.4255C14.2899 18.2401 14.133 18.0181 14.0235 17.772C13.9139 17.526 13.8539 17.2608 13.8469 16.9915C13.8398 16.7223 13.8859 16.4543 13.9824 16.2029C14.079 15.9514 14.2241 15.7215 14.4095 15.5261C14.5949 15.3308 14.8169 15.1738 15.063 15.0643L26.3055 10.0595C26.8023 9.83841 27.3666 9.82365 27.8743 10.0185C28.382 10.2133 28.7915 10.6018 29.0128 11.0986Z" fill="#242424"/>
<path id="Vector_4" d="M25.8938 19.2223C26.115 19.7191 26.1297 20.2834 25.9349 20.7911C25.74 21.2988 25.3515 21.7083 24.8548 21.9296L17.3595 25.2661C17.1126 25.3818 16.8451 25.4471 16.5727 25.4582C16.3003 25.4692 16.0284 25.4259 15.7729 25.3307C15.5175 25.2354 15.2836 25.0902 15.0849 24.9035C14.8862 24.7168 14.7267 24.4923 14.6158 24.2433C14.5049 23.9942 14.4448 23.7255 14.4389 23.453C14.4331 23.1804 14.4817 22.9094 14.5818 22.6558C14.6819 22.4022 14.8316 22.1711 15.0221 21.9761C15.2126 21.781 15.4401 21.6259 15.6912 21.5198L23.1866 18.1833C23.6834 17.9622 24.2476 17.9474 24.7553 18.1423C25.263 18.3371 25.6725 18.7256 25.8938 19.2223Z" fill="#242424"/>
<path id="Vector_5" d="M34.0175 22.3403C34.2387 22.8371 34.2534 23.4014 34.0586 23.909C33.8637 24.4167 33.4752 24.8262 32.9785 25.0475L21.7359 30.0523C21.489 30.168 21.2216 30.2333 20.9492 30.2443C20.6767 30.2554 20.4049 30.2121 20.1494 30.1168C19.8939 30.0216 19.66 29.8764 19.4613 29.6897C19.2627 29.503 19.1032 29.2785 18.9923 29.0295C18.8814 28.7804 18.8213 28.5117 18.8154 28.2391C18.8096 27.9666 18.8581 27.6956 18.9583 27.442C19.0584 27.1884 19.2081 26.9573 19.3986 26.7623C19.5891 26.5672 19.8165 26.4121 20.0677 26.306L31.3102 21.3012C31.807 21.0801 32.3713 21.0653 32.879 21.2602C33.3867 21.455 33.7962 21.8435 34.0175 22.3403Z" fill="#242424"/>
</g>
</g>
</g>
</g>
<defs>
<clipPath id="clip0_352_1207">
<rect width="47.25" height="40" fill="white" transform="translate(0.450195 0.109863)"/>
</clipPath>
</defs>
</svg>
