<svg width="48" height="41" viewBox="0 0 48 41" fill="none" xmlns="http://www.w3.org/2000/svg">
<g id="Frame" clip-path="url(#clip0_352_1231)">
<g id="Group">
<g id="Clip path group">
<mask id="mask0_352_1231" style="mask-type:luminance" maskUnits="userSpaceOnUse" x="2" y="-2" width="44" height="44">
<g id="b497c23c-80a5-4014-8e7e-4623f9553b30_comp-lc7kvtbs7">
<path id="Vector" d="M45.4279 -1.00647V41.6065H2.81494V-1.00647H45.4279Z" fill="white"/>
</g>
</mask>
<g mask="url(#mask0_352_1231)">
<g id="Group_2">
<path id="Vector_2" d="M24.0752 0.300049C28.0308 0.300049 31.8976 1.47303 35.1866 3.67066C38.4756 5.86828 41.039 8.99186 42.5528 12.6464C44.0665 16.3009 44.4626 20.3222 43.6909 24.2019C42.9192 28.0815 41.0144 31.6451 38.2173 34.4422C35.4203 37.2392 31.8566 39.1441 27.977 39.9158C24.0974 40.6875 20.076 40.2914 16.4215 38.7776C12.767 37.2639 9.64343 34.7004 7.4458 31.4115C5.24817 28.1225 4.0752 24.2557 4.0752 20.3C4.0752 14.9957 6.18233 9.90864 9.93306 6.15791C13.6838 2.40719 18.7709 0.300049 24.0752 0.300049Z" fill="#DFE225"/>
<path id="Vector_3" d="M32.6502 17.3353L28.9537 11.957C28.8279 11.7756 28.6465 11.64 28.4368 11.5708C28.2272 11.5017 28.0007 11.5026 27.7916 11.5736C27.5826 11.6446 27.4023 11.7817 27.2781 11.9643C27.1539 12.1468 27.0925 12.3648 27.1032 12.5853C27.1999 13.7263 27.6247 14.8148 28.3263 15.7197L28.3218 15.7251C27.98 15.4703 22.831 11.6034 16.7102 13.6625H16.7029C16.398 13.7424 16.1373 13.94 15.978 14.212C15.8187 14.484 15.7739 14.8081 15.8534 15.1131C15.9372 15.4021 16.125 15.6497 16.3807 15.8083C16.6364 15.9669 16.9418 16.0251 17.2379 15.9717C18.5105 15.7399 19.8073 15.6698 21.0975 15.7632C22.371 15.8684 23.6139 16.2091 24.7631 16.7678C25.9283 17.3667 26.9948 18.1406 27.9256 19.0625C28.8387 20.0598 29.6511 21.1449 30.3509 22.302C30.4296 22.4418 30.5552 22.5493 30.7055 22.6056C30.8558 22.6618 31.0211 22.6631 31.1723 22.6094C31.2579 22.5759 31.3361 22.5259 31.4023 22.4622C31.4686 22.3985 31.5216 22.3224 31.5584 22.2382C31.5952 22.154 31.6151 22.0633 31.6168 21.9715C31.6185 21.8796 31.6021 21.7882 31.5685 21.7027C31.284 20.9498 30.9355 20.2228 30.5268 19.5294L30.5313 19.524C30.948 19.7526 31.4256 19.8458 31.8976 19.7906C32.0998 19.7452 32.2885 19.6533 32.4489 19.5222C32.6093 19.3911 32.7369 19.2244 32.8215 19.0353C32.9407 18.761 32.9876 18.4606 32.9576 18.163C32.9276 17.8653 32.8217 17.5804 32.6502 17.3353Z" fill="#242424"/>
<path id="Vector_4" d="M15.5906 23.2377L19.3079 28.6459C19.4335 28.8268 19.615 28.9614 19.8245 29.0292C20.0341 29.097 20.26 29.0942 20.4678 29.0212C20.6756 28.9483 20.8537 28.8092 20.9748 28.6253C21.096 28.4414 21.1534 28.2228 21.1384 28.0031C21.0452 26.857 20.6202 25.7628 19.9153 24.8543C19.9153 24.8543 19.9153 24.8461 19.9153 24.8488C20.258 25.1036 25.4088 28.9705 31.5269 26.9115H31.5342C31.839 26.8316 32.0997 26.6339 32.2588 26.3619C32.418 26.0898 32.4626 25.7657 32.3828 25.4608C32.2992 25.1718 32.1113 24.9241 31.8556 24.7656C31.5998 24.6072 31.2943 24.5493 30.9983 24.6031C29.7258 24.8355 28.4288 24.9053 27.1387 24.8107C25.8653 24.7058 24.6224 24.3654 23.4731 23.8071C22.3072 23.2091 21.2398 22.4361 20.3079 21.515C19.3972 20.5162 18.5872 19.4299 17.8899 18.2719C17.8084 18.1266 17.6765 18.0162 17.519 17.9617C17.3616 17.9072 17.1896 17.9124 17.0358 17.9763C16.8701 18.0515 16.7398 18.1878 16.6722 18.3568C16.6046 18.5257 16.6049 18.7143 16.6731 18.883C16.9578 19.6327 17.306 20.3568 17.714 21.0472L17.7094 21.0526C17.2927 20.8242 16.8152 20.7311 16.3431 20.7861C16.1411 20.8308 15.9523 20.9222 15.792 21.0531C15.6318 21.1839 15.5044 21.3505 15.4201 21.5395C15.3011 21.8136 15.2543 22.1135 15.2841 22.4108C15.314 22.7081 15.4195 22.9928 15.5906 23.2377Z" fill="#242424"/>
</g>
</g>
</g>
</g>
</g>
<defs>
<clipPath id="clip0_352_1231">
<rect width="47.25" height="40" fill="white" transform="translate(0.450195 0.300049)"/>
</clipPath>
</defs>
</svg>
