<svg width="48" height="41" viewBox="0 0 48 41" fill="none" xmlns="http://www.w3.org/2000/svg">
<g id="Img - Jet Protocol logo" clip-path="url(#clip0_352_1270)">
<g id="Group">
<g id="Group_2">
<g id="Clip path group">
<mask id="mask0_352_1270" style="mask-type:luminance" maskUnits="userSpaceOnUse" x="4" y="0" width="41" height="41">
<g id="ff7d4413-2f89-4051-a821-753445b9b7bf_comp-lc7kvtcn6">
<path id="Vector" d="M44.0752 0.52002V40.52H4.0752V0.52002H44.0752Z" fill="white"/>
</g>
</mask>
<g mask="url(#mask0_352_1270)">
<g id="Group_3">
<path id="Vector_2" d="M23.8541 2.12415C27.4431 2.12415 30.9515 3.1884 33.9356 5.18232C36.9197 7.17624 39.2455 10.0103 40.619 13.326C41.9924 16.6418 42.3518 20.2904 41.6516 23.8104C40.9514 27.3304 39.2232 30.5637 36.6854 33.1015C34.1476 35.6393 30.9143 37.3675 27.3943 38.0677C23.8743 38.7679 20.2257 38.4085 16.9099 37.0351C13.5941 35.6617 10.7601 33.3358 8.76618 30.3517C6.77226 27.3676 5.70801 23.8592 5.70801 20.2703C5.70801 15.4576 7.61983 10.8421 11.0229 7.43902C14.4259 4.03596 19.0415 2.12415 23.8541 2.12415Z" fill="#DFE225"/>
<g id="Group_4">
<g id="Clip path group_2">
<mask id="mask1_352_1270" style="mask-type:luminance" maskUnits="userSpaceOnUse" x="12" y="8" width="26" height="25">
<g id="f84220ea-da0e-495a-bcc8-d129b733983d_comp-lc7kvtcn6">
<path id="Vector_3" d="M37.4884 8.69727V32.3438H12.2949V8.69727H37.4884Z" fill="white"/>
</g>
</mask>
<g mask="url(#mask1_352_1270)">
<g id="Group_5" opacity="0.8">
<g id="Group_6">
<g id="Clip path group_3">
<mask id="mask2_352_1270" style="mask-type:luminance" maskUnits="userSpaceOnUse" x="19" y="8" width="10" height="11">
<g id="e32f3bad-0505-4dc1-a37a-fa7fad303770_comp-lc7kvtcn6">
<path id="Vector_4" d="M24.087 8.69727C22.5457 8.70113 21.0202 9.00789 19.5972 9.60012L23.1694 18.236C23.4756 18.1086 23.8044 18.0444 24.136 18.0472C24.4676 18.05 24.7952 18.1198 25.0992 18.2524L28.678 9.61645C27.2409 9.01344 25.6985 8.70104 24.14 8.69727H24.087Z" fill="white"/>
</g>
</mask>
<g mask="url(#mask2_352_1270)">
<g id="Group_7">
<path id="Vector_5" d="M29.0299 8.34619V18.5307H19.3188V8.34619H29.0299Z" fill="#242424"/>
</g>
</g>
</g>
</g>
<g id="Group_8">
<g id="Clip path group_4">
<mask id="mask3_352_1270" style="mask-type:luminance" maskUnits="userSpaceOnUse" x="13" y="9" width="11" height="11">
<g id="a7ecb05d-79d6-48a5-ba0a-e7b229a75f5c_comp-lc7kvtcn6">
<path id="Vector_6" d="M15.7416 12.1764C14.6427 13.2817 13.7727 14.593 13.1816 16.0352L21.8176 19.6115C21.9388 19.3027 22.1212 19.0215 22.3538 18.7849C22.5864 18.5482 22.8643 18.361 23.171 18.2344L19.5947 9.6001C18.1524 10.1953 16.8427 11.071 15.7416 12.1764Z" fill="white"/>
</g>
</mask>
<g mask="url(#mask3_352_1270)">
<g id="Group_9">
<path id="Vector_7" d="M28.185 5.30872V25.3267H8.16699V5.30872H28.185Z" fill="#242424"/>
</g>
</g>
</g>
</g>
<g id="Group_10">
<g id="Clip path group_5">
<mask id="mask4_352_1270" style="mask-type:luminance" maskUnits="userSpaceOnUse" x="25" y="9" width="11" height="11">
<g id="7a95a716-5cb6-4399-b918-c3812b915c97_comp-lc7kvtcn6">
<path id="Vector_8" d="M25.1006 18.2517C25.69 18.5064 26.1571 18.9808 26.4026 19.5741L26.423 19.628L35.0598 16.0509L35.0385 15.9986C33.8475 13.1126 31.5597 10.8173 28.6777 9.61658L25.1006 18.2517Z" fill="white"/>
</g>
</mask>
<g mask="url(#mask4_352_1270)">
<g id="Group_11">
<path id="Vector_9" d="M40.0385 4.48254V24.5005H20.0205V4.48254H40.0385Z" fill="#242424"/>
</g>
</g>
</g>
</g>
<g id="Group_12">
<g id="Clip path group_6">
<mask id="mask5_352_1270" style="mask-type:luminance" maskUnits="userSpaceOnUse" x="26" y="16" width="10" height="10">
<g id="75c3e273-bafd-431f-9e18-8429d206c2ec_comp-lc7kvtcn6">
<path id="Vector_10" d="M26.423 19.6279C26.6593 20.234 26.6461 20.9091 26.3862 21.5055L35.0222 25.0826C35.622 23.6536 35.934 22.1202 35.9403 20.5704C35.9466 19.0205 35.6471 17.4847 35.0589 16.0508L26.423 19.6279Z" fill="white"/>
</g>
</mask>
<g mask="url(#mask5_352_1270)">
<g id="Group_13">
<path id="Vector_11" d="M36.6491 15.0189V25.9063H25.2891V15.0189H36.6491Z" fill="#242424"/>
</g>
</g>
</g>
</g>
<g id="Group_14">
<g id="Clip path group_7">
<mask id="mask6_352_1270" style="mask-type:luminance" maskUnits="userSpaceOnUse" x="12" y="16" width="10" height="10">
<g id="0e55978e-49c2-4252-a2bc-d0d18c279780_comp-lc7kvtcn6">
<path id="Vector_12" d="M12.295 20.5741C12.3007 22.1086 12.6057 23.6273 13.193 25.0451L13.2158 25.0973L21.8525 21.5202L21.8297 21.4679C21.5845 20.8742 21.579 20.2085 21.8142 19.6108L13.1823 16.0353C12.591 17.4751 12.2895 19.0175 12.295 20.5741Z" fill="white"/>
</g>
</mask>
<g mask="url(#mask6_352_1270)">
<g id="Group_15">
<path id="Vector_13" d="M22.4794 15.3708V25.428H11.9438V15.3708H22.4794Z" fill="#242424"/>
</g>
</g>
</g>
</g>
<g id="Group_16">
<g id="Clip path group_8">
<mask id="mask7_352_1270" style="mask-type:luminance" maskUnits="userSpaceOnUse" x="25" y="21" width="11" height="11">
<g id="96eb43d0-d59d-4911-a803-5b73b418bf06_comp-lc7kvtcn6">
<path id="Vector_14" d="M25.8568 22.2891C25.6305 22.5119 25.3633 22.6887 25.0698 22.8099L28.647 31.4458C31.5324 30.2547 33.8276 27.9678 35.029 25.0866L26.3923 21.5087C26.2656 21.8009 26.0841 22.0661 25.8576 22.2899" fill="white"/>
</g>
</mask>
<g mask="url(#mask7_352_1270)">
<g id="Group_17">
<path id="Vector_15" d="M40.0394 16.4238V36.4418H20.0215V16.4238H40.0394Z" fill="#242424"/>
</g>
</g>
</g>
</g>
<g id="Group_18">
<g id="Clip path group_9">
<mask id="mask8_352_1270" style="mask-type:luminance" maskUnits="userSpaceOnUse" x="13" y="21" width="11" height="11">
<g id="c11fa4fd-ce1d-4505-b0df-b4531718a060_comp-lc7kvtcn6">
<path id="Vector_16" d="M13.2192 25.0973C13.817 26.5271 14.6911 27.8249 15.7914 28.9161C16.8918 30.0074 18.1967 30.8707 19.6315 31.4565L23.2086 22.8205C22.911 22.7024 22.6388 22.5281 22.407 22.3071C22.1733 22.0836 21.9861 21.8161 21.856 21.5201L13.2192 25.0973Z" fill="white"/>
</g>
</mask>
<g mask="url(#mask8_352_1270)">
<g id="Group_19">
<path id="Vector_17" d="M27.9793 16.4238V36.4418H8.08057V16.4238H27.9793Z" fill="#242424"/>
</g>
</g>
</g>
</g>
<g id="Group_20">
<g id="Clip path group_10">
<mask id="mask9_352_1270" style="mask-type:luminance" maskUnits="userSpaceOnUse" x="19" y="22" width="10" height="11">
<g id="d80e3937-d2a4-4a71-bd00-3ae210a11789_comp-lc7kvtcn6">
<path id="Vector_18" d="M24.1398 22.9944C23.8213 22.9969 23.5054 22.9381 23.2091 22.8213L19.6328 31.4564C21.0522 32.039 22.5712 32.3404 24.1055 32.3438H24.1406C25.6856 32.3423 27.2153 32.0372 28.6426 31.4458L25.0695 22.8066C24.7756 22.9281 24.461 22.9918 24.143 22.9944" fill="white"/>
</g>
</mask>
<g mask="url(#mask9_352_1270)">
<g id="Group_21">
<path id="Vector_19" d="M29.3821 22.0433V32.9307H18.9683V22.0433H29.3821Z" fill="#242424"/>
</g>
</g>
</g>
</g>
</g>
</g>
</g>
</g>
</g>
</g>
</g>
</g>
</g>
</g>
<defs>
<clipPath id="clip0_352_1270">
<rect width="47.25" height="40" fill="white" transform="translate(0.450195 0.52002)"/>
</clipPath>
</defs>
</svg>
