<svg width="48" height="41" viewBox="0 0 48 41" fill="none" xmlns="http://www.w3.org/2000/svg">
<g id="Frame" clip-path="url(#clip0_352_1113)">
<g id="Group">
<g id="Group_2">
<g id="Group_3">
<g id="Clip path group">
<mask id="mask0_352_1113" style="mask-type:luminance" maskUnits="userSpaceOnUse" x="3" y="0" width="41" height="41">
<g id="30e48413-0271-4f89-b544-52ca5c401307_comp-lc7kvt8l">
<path id="Vector" d="M43.625 0.5V40.5H3.625V0.5H43.625Z" fill="white"/>
</g>
</mask>
<g mask="url(#mask0_352_1113)">
<g id="Group_4">
<path id="Vector_2" d="M23.233 0.5C27.1111 0.5 30.9021 1.64999 34.1266 3.80454C37.3511 5.9591 39.8643 9.02145 41.3484 12.6043C42.8325 16.1872 43.2208 20.1298 42.4642 23.9333C41.7077 27.7369 39.8402 31.2307 37.0979 33.9729C34.3557 36.7152 30.8619 38.5827 27.0583 39.3392C23.2548 40.0958 19.3122 39.7075 15.7293 38.2234C12.1465 36.7393 9.0841 34.2261 6.92954 31.0016C4.77499 27.7771 3.625 23.9861 3.625 20.108C3.625 14.9076 5.69084 9.92026 9.36805 6.24305C13.0453 2.56584 18.0326 0.5 23.233 0.5Z" fill="#DFE225"/>
</g>
</g>
</g>
</g>
<path id="Vector_3" d="M20.9221 13.4868C20.6608 13.4494 20.6483 13.4361 20.7728 13.4254C21.1649 13.4025 21.5582 13.4361 21.9408 13.525C22.9525 13.8146 23.8479 14.4143 24.5008 15.2397L24.7248 15.501L25.0475 15.4512C26.3932 15.2216 27.7767 15.3948 29.0243 15.949C29.3393 16.0925 29.6389 16.2676 29.9186 16.4717C29.9654 16.5824 29.9954 16.6996 30.0075 16.8192C30.1133 17.2735 30.0651 17.75 29.8706 18.1739C29.8263 18.2294 29.7992 18.2967 29.7926 18.3674C29.7859 18.4382 29.8001 18.5093 29.8332 18.5721C29.8637 18.6352 29.9112 18.6885 29.9705 18.7259C30.0297 18.7633 30.0983 18.7833 30.1683 18.7837C30.4661 18.7837 30.7772 18.3117 30.9257 17.653L30.987 17.3917L31.099 17.5161C31.7148 18.1843 32.1325 19.0107 32.3052 19.9028L32.3301 20.0886L32.2181 19.9268C32.066 19.6758 31.8628 19.4595 31.6217 19.2921C30.9938 18.9538 30.2821 18.803 29.571 18.8574C28.8007 18.8465 28.0356 18.7296 27.2972 18.5099C26.2786 18.1748 25.7559 17.7392 24.5506 16.1357C24.1881 15.631 23.7847 15.1571 23.3443 14.7188C22.6952 14.0522 21.8433 13.6195 20.9221 13.4886V13.4868Z" fill="#242424"/>
<path id="Vector_4" d="M30.1812 15.0644C30.1822 14.6974 30.2581 14.3344 30.4044 13.9978C30.4318 13.9227 30.4695 13.8519 30.5164 13.7871C30.5288 13.7871 30.5039 13.876 30.4666 13.9729C30.3651 14.3288 30.348 14.7035 30.4168 15.0671C30.5057 15.6262 30.5412 15.7018 31.1377 16.3116C31.4115 16.5978 31.7341 16.9578 31.8586 17.1071L32.0701 17.3809L31.8586 17.1827C31.5498 16.8943 31.2173 16.6324 30.8648 16.3996C30.7759 16.3498 30.7652 16.3498 30.703 16.412C30.6408 16.4742 30.6417 16.5364 30.6417 16.8964C30.6565 17.3351 30.5624 17.7706 30.3679 18.164C30.2684 18.3498 30.2559 18.3133 30.343 18.1027C30.4223 17.8543 30.4475 17.5918 30.4168 17.3329C30.4168 16.2511 30.2924 15.9907 29.535 15.5551C29.3083 15.4249 29.0761 15.3045 28.839 15.1942C28.7237 15.1481 28.6117 15.094 28.5039 15.0324C28.8614 15.1011 29.2113 15.205 29.5483 15.3427C29.983 15.5204 30.0586 15.5284 30.1075 15.5204C30.1448 15.484 30.1706 15.3844 30.183 15.076L30.1812 15.0644Z" fill="#242424"/>
<path id="Vector_5" d="M21.4284 16.9177C20.884 16.1358 20.6091 15.1978 20.6453 14.2457L20.6701 13.9844L20.7946 14.0093C21.073 14.0691 21.3411 14.1698 21.5901 14.3079C22.0879 14.6057 22.311 15.019 22.5226 16.035C22.5839 16.3337 22.6719 16.6813 22.7084 16.7933C22.8392 17.1096 23.0062 17.4097 23.2061 17.6875C23.343 17.8857 23.2559 17.9853 22.9448 17.9613C22.3272 17.814 21.7865 17.442 21.4284 16.9177Z" fill="#242424"/>
<path id="Vector_6" d="M29.547 22.324C27.0856 21.3303 26.2163 20.4725 26.2163 19.0174C26.2163 18.8058 26.2288 18.6316 26.2288 18.6316C26.3021 18.6813 26.3725 18.7353 26.4394 18.7934C26.9372 19.1916 27.4963 19.3649 29.0501 19.5889C29.6948 19.6643 30.3315 19.7976 30.9523 19.9871C31.6269 20.1636 32.2364 20.5305 32.708 21.044C33.1796 21.5576 33.4934 22.196 33.6119 22.8831C33.6676 23.4018 33.6427 23.9259 33.5381 24.4369C33.4534 24.754 33.3193 25.0558 33.1408 25.3311C33.1283 25.3311 33.1034 25.2698 33.1034 25.1694C33.0834 24.8989 33.0093 24.6353 32.8855 24.394C32.7616 24.1527 32.5906 23.9388 32.3825 23.7649C31.5206 23.1364 30.5627 22.6499 29.547 22.324Z" fill="#242424"/>
<path id="Vector_7" d="M27.8074 22.7365C27.7819 22.5589 27.7403 22.3839 27.683 22.2139L27.6216 22.0281L27.7336 22.165C27.9109 22.3778 28.0461 22.6224 28.1318 22.8859C28.2141 23.108 28.2445 23.3461 28.2207 23.5819C28.2396 23.8093 28.2093 24.0382 28.1318 24.253C28.0211 24.5657 27.8427 24.8501 27.6092 25.0859C27.1022 25.5695 26.4416 25.8598 25.7425 25.9063C25.5932 25.9187 25.1709 25.9561 24.7976 25.9801C24.0801 25.9916 23.3682 26.1087 22.6847 26.3276C22.6101 26.3525 22.5354 26.3774 22.5229 26.365C22.7271 26.2017 22.9529 26.0677 23.1941 25.9667C23.7893 25.7125 24.4179 25.5449 25.0607 25.469C25.4341 25.4189 25.8038 25.3444 26.1674 25.2459C26.7144 25.1244 27.1923 24.7938 27.4989 24.3248C27.8055 23.8558 27.9165 23.2854 27.8083 22.7356L27.8074 22.7365Z" fill="#242424"/>
<path id="Vector_8" d="M28.935 24.7346C28.6213 24.1117 28.5422 23.3968 28.7119 22.7204C28.7368 22.6591 28.7617 22.5959 28.7857 22.5959C28.8498 22.6147 28.91 22.6448 28.9635 22.6848C29.1128 22.7844 29.423 22.9586 30.2186 23.3959C30.9654 23.7475 31.6365 24.2411 32.1946 24.8493C32.5465 25.2816 32.7742 25.8015 32.8532 26.3533C32.9067 26.8466 32.8858 27.3453 32.791 27.8324C32.6753 28.3345 32.4551 28.8066 32.1446 29.2179C31.8342 29.6291 31.4405 29.9703 30.9892 30.2191C30.9057 30.2676 30.8183 30.3092 30.7279 30.3435C30.7514 30.2472 30.7892 30.1549 30.8399 30.0697C30.987 29.7725 31.0727 29.4487 31.0919 29.1176C31.1112 28.7865 31.0636 28.4549 30.9519 28.1426C30.6995 27.5054 30.3655 26.9036 29.9581 26.3524C29.5754 25.843 29.2344 25.3034 28.9386 24.7391L28.935 24.7346Z" fill="#242424"/>
<path id="Vector_9" d="M19.6792 28.5381C20.5648 27.7826 21.6307 27.2688 22.7734 27.0465C23.3062 26.9736 23.8477 26.9944 24.3734 27.1079C24.9957 27.253 25.549 27.6084 25.9396 28.1141C26.2642 28.6224 26.4603 29.202 26.5112 29.803C26.5609 30.1381 26.6232 30.4865 26.6356 30.5612C26.6998 30.9404 26.8929 31.2858 27.1823 31.539C27.444 31.6815 27.7357 31.7603 28.0337 31.769C28.3316 31.7776 28.6274 31.7159 28.8969 31.5888C28.964 31.5587 29.0349 31.5381 29.1076 31.5274C28.9518 31.6773 28.7714 31.7994 28.5743 31.8883C28.3003 32.037 27.9916 32.11 27.6801 32.0999C27.368 32.0899 27.064 31.9986 26.798 31.835C26.532 31.6715 26.3134 31.4414 26.1636 31.1674C26.0091 30.9031 25.8719 30.6291 25.7529 30.347C25.5653 29.6813 25.1525 29.1014 24.5849 28.7061C24.3732 28.5642 24.1294 28.4774 23.8756 28.4535C23.6219 28.4296 23.3661 28.4694 23.1316 28.5692C23.0007 28.6296 22.8855 28.7194 22.795 28.8317C22.7045 28.944 22.6412 29.0756 22.6099 29.2164C22.5787 29.3571 22.5804 29.5032 22.6149 29.6432C22.6495 29.7832 22.7159 29.9133 22.8089 30.0234C22.9996 30.2212 23.249 30.3521 23.5201 30.3968C23.6276 30.411 23.7369 30.402 23.8406 30.3704C23.9444 30.3388 24.0402 30.2853 24.1215 30.2135C24.2028 30.1417 24.2677 30.0533 24.312 29.9543C24.3562 29.8553 24.3786 29.7479 24.3778 29.6394C24.3873 29.5068 24.3521 29.3747 24.2779 29.2644C24.2036 29.154 24.0945 29.0717 23.9681 29.0305C23.5698 28.8528 23.1352 29.0554 23.1476 29.4403C23.1452 29.5143 23.167 29.587 23.2097 29.6475C23.2524 29.7079 23.3136 29.7529 23.3841 29.7754C23.4836 29.8243 23.4836 29.8243 23.4089 29.8128C23.3266 29.7901 23.2521 29.7449 23.1939 29.6824C23.1357 29.6199 23.096 29.5424 23.0792 29.4586C23.0624 29.3748 23.0692 29.288 23.0989 29.2079C23.1286 29.1278 23.1799 29.0574 23.2472 29.0048C23.35 28.9256 23.4687 28.8698 23.5952 28.8411C23.7218 28.8125 23.853 28.8117 23.9799 28.8388C24.1067 28.866 24.2262 28.9204 24.3299 28.9983C24.4336 29.0763 24.5191 29.1758 24.5805 29.2901C24.6823 29.5613 24.6911 29.8587 24.6054 30.1354C24.4955 30.4039 24.2892 30.6216 24.0271 30.7457C23.7649 30.8699 23.4658 30.8916 23.1885 30.8065C22.7567 30.6884 22.3763 30.4306 22.1067 30.0732C21.8127 29.7003 21.4418 29.3951 21.0192 29.1785C20.5966 28.9619 20.1323 28.839 19.6578 28.8181L19.4214 28.7808L19.6827 28.5328L19.6792 28.5381Z" fill="#242424"/>
<path id="Vector_10" fill-rule="evenodd" clip-rule="evenodd" d="M13.1405 8.53903C16.0365 12.0564 20.4987 17.5257 20.7218 17.8244C20.9076 18.0733 20.8338 18.3088 20.5236 18.483C20.3018 18.595 20.0602 18.6623 19.8125 18.6813C19.5879 18.6719 19.3751 18.5787 19.216 18.4199C19.104 18.3079 18.6196 17.5995 17.5271 15.8973C17.0156 15.0931 16.4976 14.2931 15.9734 13.4973C16.3919 14.4287 16.8823 15.3262 17.44 16.1817C17.9121 16.9499 18.3354 17.7471 18.7076 18.5684C18.7076 18.7301 18.6578 18.8173 18.4587 19.0404C18.0803 19.5187 17.8706 20.1087 17.8622 20.7186C17.7012 21.7961 17.2055 22.7958 16.4454 23.5764C16.1363 23.9088 15.873 24.281 15.6622 24.683C15.4983 24.9889 15.4128 25.3307 15.4134 25.6777C15.3855 26.0904 15.4405 26.5044 15.5751 26.8955C15.7109 27.3139 15.9122 27.7082 16.1716 28.0635C16.3773 28.336 16.5329 28.643 16.6311 28.9701C16.6311 29.0697 16.656 29.0697 17.1031 28.9701C18.0112 28.8088 18.8556 28.3951 19.5396 27.7764C19.6717 27.6593 19.7743 27.5127 19.8391 27.3485C19.904 27.1844 19.9293 27.0072 19.9129 26.8315C19.9299 26.6525 19.8992 26.4721 19.824 26.3088C19.6178 25.9522 19.3169 25.6596 18.9547 25.4635C18.6946 25.3317 18.4671 25.1437 18.2888 24.9131C18.1104 24.6824 17.9857 24.415 17.9236 24.1301C17.8802 23.6037 18.0162 23.078 18.3094 22.6386C18.6412 22.0353 18.8284 21.3631 18.856 20.675C18.8934 20.1524 18.9556 19.9417 19.1049 19.7808C19.193 19.6886 19.2992 19.6156 19.4168 19.5664C19.5344 19.5171 19.661 19.4927 19.7885 19.4946C20.2936 19.4653 20.7747 19.2686 21.1556 18.9355C21.2887 18.825 21.3956 18.6864 21.4686 18.5296C21.5417 18.3728 21.5789 18.2018 21.5778 18.0288L21.5902 17.7426L21.4285 17.5648C20.8445 16.8937 12.7529 7.99414 12.7174 7.99414C12.7049 7.99414 12.9031 8.23059 13.1396 8.52747L13.1405 8.53903ZM16.9556 26.2137C17.0206 26.1006 17.0401 25.9669 17.0101 25.8399C16.98 25.7129 16.9027 25.6021 16.7938 25.5301C16.5831 25.3933 16.2605 25.4555 16.2605 25.6421C16.2604 25.6711 16.2702 25.6993 16.2883 25.7219C16.3064 25.7445 16.3317 25.7603 16.36 25.7666C16.472 25.8279 16.4845 25.891 16.3974 26.0279C16.3102 26.1648 16.3085 26.2893 16.4222 26.3764C16.4663 26.4069 16.5167 26.4271 16.5696 26.4354C16.6226 26.4437 16.6767 26.44 16.728 26.4244C16.7793 26.4088 16.8264 26.3819 16.8658 26.3456C16.9052 26.3092 16.9359 26.2645 16.9556 26.2146V26.2137Z" fill="#242424"/>
<path id="Vector_11" fill-rule="evenodd" clip-rule="evenodd" d="M21.9913 19.6769C21.8297 19.7379 21.6848 19.8361 21.5683 19.9635C21.4517 20.0909 21.3667 20.2439 21.3201 20.4102C21.2675 20.6347 21.289 20.8701 21.3815 21.0813C21.5184 21.2591 21.6428 21.3053 21.9904 21.3053C22.6739 21.3053 23.2579 21.0075 23.3237 20.6467C23.3278 20.4593 23.2771 20.2749 23.1778 20.116C23.0785 19.9571 22.9348 19.8307 22.7646 19.7524C22.5221 19.6466 22.2524 19.6201 21.9939 19.6769H21.9913ZM22.7868 20.2991C22.8114 20.2645 22.8277 20.2249 22.8347 20.1831C22.8417 20.1413 22.8391 20.0984 22.8271 20.0578C22.8152 20.0171 22.7941 19.9797 22.7656 19.9484C22.737 19.917 22.7017 19.8926 22.6624 19.8769C22.3273 19.6653 21.817 19.8395 21.817 20.1631C21.817 20.3249 22.0784 20.4991 22.3273 20.4991C22.5003 20.4932 22.6646 20.4217 22.7868 20.2991Z" fill="#242424"/>
</g>
</g>
</g>
<defs>
<clipPath id="clip0_352_1113">
<rect width="47.25" height="40" fill="white" transform="translate(0 0.5)"/>
</clipPath>
</defs>
</svg>
