<svg width="48" height="41" viewBox="0 0 48 41" fill="none" xmlns="http://www.w3.org/2000/svg">
<g id="Frame" clip-path="url(#clip0_352_1162)">
<g id="Group">
<g id="Group_2">
<g id="Group_3">
<g id="Clip path group">
<mask id="mask0_352_1162" style="mask-type:luminance" maskUnits="userSpaceOnUse" x="4" y="0" width="41" height="42">
<g id="6df52fb6-aefd-402d-81e9-bed2dafe2897_comp-lc7kvta7">
<path id="Vector" d="M44.8749 0.709961V41.5096H4.0752V0.709961H44.8749Z" fill="white"/>
</g>
</mask>
<g mask="url(#mask0_352_1162)">
<g id="Group_4">
<path id="Vector_2" d="M24.0752 0.709961C28.0308 0.709961 31.8976 1.88294 35.1866 4.08057C38.4756 6.2782 41.039 9.40177 42.5528 13.0563C44.0665 16.7108 44.4626 20.7321 43.6909 24.6118C42.9192 28.4914 41.0144 32.055 38.2173 34.8521C35.4203 37.6491 31.8566 39.554 27.977 40.3257C24.0974 41.0974 20.076 40.7013 16.4215 39.1876C12.767 37.6738 9.64343 35.1103 7.4458 31.8214C5.24817 28.5324 4.0752 24.6656 4.0752 20.71C4.0752 15.4056 6.18233 10.3186 9.93306 6.56783C13.6838 2.8171 18.7709 0.709961 24.0752 0.709961Z" fill="#DFE225"/>
</g>
</g>
</g>
</g>
<g id="Group_5">
<g id="Clip path group_2">
<mask id="mask1_352_1162" style="mask-type:luminance" maskUnits="userSpaceOnUse" x="9" y="12" width="31" height="19">
<g id="5e710bd1-1218-4709-9737-2373e2a6c401_comp-lc7kvta7">
<path id="Vector_3" d="M39.7197 12.1311V30.0893H9.23145V12.1311H39.7197Z" fill="white"/>
</g>
</mask>
<g mask="url(#mask1_352_1162)">
<g id="Group_6">
<path id="Vector_4" d="M38.5782 28.451H28.3883V27.946H38.2155L38.0242 27.6812L37.1067 26.4119L33.9162 26.3847L29.7546 26.3276C29.8028 26.2116 29.8246 26.0864 29.8185 25.9609C29.8124 25.8355 29.7785 25.713 29.7192 25.6022C29.6259 25.4305 29.4741 25.2979 29.2913 25.2287C29.1034 25.1702 28.9026 25.1667 28.7128 25.2187C28.614 25.2566 28.5221 25.3105 28.4408 25.3783L28.3756 19.3944L28.3402 14.2636L26.7717 12.1311H26.3338L24.7924 12.1492V25.3992V25.0102C24.8431 24.4018 24.7938 23.7893 24.6465 23.1969C24.4663 22.5482 24.158 21.9421 23.7398 21.4144C22.8773 20.3277 21.6917 19.5432 20.3543 19.174C19.8711 19.0534 19.9219 19.0553 17.3914 19.0553C15.3777 19.0553 15.0622 19.0553 14.9298 19.0235C14.6485 18.9801 14.3848 18.8594 14.1682 18.6748C13.9516 18.4902 13.7905 18.249 13.7031 17.9781C13.6346 17.7322 13.617 17.4749 13.6514 17.222C13.6965 16.9657 13.8052 16.7248 13.9676 16.5214C14.13 16.318 14.3408 16.1586 14.5807 16.0578C14.879 15.9291 14.7231 15.9354 17.9444 15.9354H24.2911V12.1492H23.7616C23.3037 12.1492 21.0416 12.1592 18.7432 12.1646C16.4448 12.1701 14.5417 12.1801 14.5318 12.1882C14.4701 12.2038 14.4074 12.215 14.3441 12.2218C13.9924 12.2759 13.6466 12.3633 13.3114 12.4829C12.7682 12.6927 12.2591 12.9821 11.8009 13.3415C11.4807 13.6183 11.181 13.9179 10.9042 14.2382C10.4389 14.8173 10.1045 15.4904 9.92413 16.2111C9.84008 16.5655 9.79329 16.9277 9.78451 17.2918V17.4731H11.0856C11.8018 17.4731 12.3921 17.4813 12.3984 17.4886C12.4138 17.5627 12.4238 17.6378 12.4283 17.7134C12.4502 18.0617 12.545 18.4015 12.7067 18.7107C13.037 19.3642 13.6132 19.8599 14.3087 20.0889L14.4901 20.1523L14.4964 20.3454L14.5028 20.5386L14.4275 20.525C14.0916 20.4368 13.7683 20.3061 13.4655 20.136C13.0409 19.95 12.6658 19.667 12.3704 19.3097C12.075 18.9524 11.8675 18.5308 11.7647 18.0788L11.7311 17.8703H9.23145V18.0616C9.24481 18.6826 9.37395 19.2958 9.61224 19.8694C9.82388 20.3743 10.115 20.842 10.4745 21.2548C10.7172 21.5299 10.9806 21.786 11.2624 22.0209C11.6715 22.3457 12.1233 22.6126 12.6051 22.8143C12.781 22.8832 12.8463 22.9049 13.1129 22.9902C13.4912 23.0945 13.8797 23.1581 14.2716 23.1797C14.3327 23.1775 14.3937 23.1843 14.4529 23.1996L14.5046 23.2195V25.2142L14.4393 25.2777C14.3161 25.3904 14.2243 25.5332 14.1727 25.692C14.1332 25.8566 14.1311 26.0279 14.1664 26.1934C14.2217 26.3258 14.364 26.3158 12.2932 26.3158H10.4155V30.0866H13.5408C15.258 30.0866 17.2953 30.0766 18.065 30.0685C18.6151 30.0887 19.166 30.0696 19.7133 30.0113C20.4738 29.8952 21.1985 29.6098 21.834 29.1763C22.4037 28.7833 22.9022 28.2961 23.3082 27.7356L23.4542 27.528C23.466 27.5117 23.4896 27.508 23.583 27.5833C23.6563 27.6395 23.7349 27.6884 23.8178 27.7293C23.924 27.7788 24.0408 27.8012 24.1578 27.7946C24.3402 27.8149 24.5242 27.7741 24.6809 27.6785C24.7191 27.6558 24.755 27.6294 24.7879 27.5996V30.034H39.7197L38.5782 28.451ZM28.4907 25.8389C28.5192 25.7664 28.5629 25.7008 28.6187 25.6464C28.6745 25.592 28.7412 25.55 28.8144 25.5234C28.9316 25.4909 29.0556 25.4931 29.1716 25.5297C29.2846 25.5727 29.3785 25.6547 29.4363 25.7609C29.4735 25.8301 29.4946 25.9068 29.498 25.9853C29.5015 26.0638 29.4872 26.142 29.4563 26.2142C29.4427 26.2552 29.4197 26.2925 29.3892 26.323L28.5732 26.3113C28.5256 26.2436 28.4935 26.1662 28.4793 26.0847C28.465 26.0032 28.4689 25.9187 28.4907 25.8389ZM15.5481 26.1671C15.4829 26.3149 15.4693 26.3194 15.0703 26.3194C14.7403 26.3194 14.7167 26.3194 14.6777 26.2777C14.6253 26.2096 14.5898 26.1301 14.574 26.0456C14.5583 25.9612 14.5627 25.8741 14.5871 25.7917C14.6156 25.7192 14.6592 25.6536 14.715 25.5992C14.7708 25.5448 14.8375 25.5029 14.9108 25.4762C15.0279 25.4438 15.152 25.446 15.268 25.4826C15.381 25.5256 15.4749 25.6076 15.5327 25.7138C15.5699 25.783 15.591 25.8597 15.5944 25.9382C15.5979 26.0166 15.5836 26.0949 15.5527 26.1671M20.3417 25.1544C20.2763 25.3685 20.1683 25.5673 20.0242 25.7387C19.8801 25.9101 19.7028 26.0506 19.503 26.1517C19.2065 26.2977 19.2582 26.294 17.5464 26.2995H15.9924C15.9607 26.2995 15.9589 26.2306 15.9924 26.1771C16.0231 26.0223 16.0203 25.8628 15.9842 25.7092C15.9383 25.5589 15.8565 25.422 15.7458 25.3103L15.6551 25.2196V24.2223C15.6551 23.672 15.6615 23.2159 15.6687 23.2096C15.676 23.2032 16.4403 23.196 17.3705 23.196C17.9864 23.1555 18.6047 23.1688 19.2183 23.2359C19.483 23.3068 19.7252 23.4439 19.9224 23.6342C20.1195 23.8246 20.265 24.0619 20.3453 24.3239C20.3975 24.5976 20.3975 24.8788 20.3453 25.1525M23.6501 24.74L23.34 24.7337L23.0281 24.7273L23.0145 24.5297C22.9833 23.6881 22.6805 22.8792 22.1513 22.224C21.52 21.416 20.6123 20.8696 19.6027 20.69C18.8319 20.603 18.0552 20.5818 17.2808 20.6265C16.4439 20.6328 15.7394 20.6265 15.705 20.6265C15.6533 20.6147 15.6533 20.6111 15.6533 20.4388C15.65 20.378 15.6545 20.3171 15.6669 20.2575C15.6687 20.2448 16.5754 20.2385 17.6842 20.2385C19.4132 20.2385 19.7215 20.2385 19.8874 20.2702C20.8187 20.4486 21.6694 20.9178 22.3173 21.6102C22.9681 22.2008 23.4148 22.9827 23.5929 23.8433C23.6324 24.0323 23.6489 24.2253 23.6419 24.4182L23.6501 24.74ZM24.6664 27.1245C24.6249 27.1995 24.5656 27.2632 24.4938 27.31C24.422 27.3567 24.3398 27.3852 24.2544 27.3928C24.169 27.4004 24.0831 27.3869 24.0041 27.3536C23.9252 27.3203 23.8556 27.2681 23.8015 27.2016C23.7226 27.0946 23.7244 27.0774 23.8078 26.8815C23.8495 26.7809 23.9048 26.6449 23.9284 26.5814C23.9819 26.4373 23.9955 26.4191 24.0726 26.4001C24.1682 26.374 24.2694 26.3761 24.3639 26.4063C24.4584 26.4364 24.5421 26.4933 24.6049 26.57C24.6677 26.6468 24.707 26.7401 24.7179 26.8386C24.7288 26.9372 24.7109 27.0359 24.6664 27.1245Z" fill="#242424"/>
</g>
</g>
</g>
</g>
</g>
</g>
</g>
<defs>
<clipPath id="clip0_352_1162">
<rect width="47.25" height="40" fill="white" transform="translate(0.450195 0.709961)"/>
</clipPath>
</defs>
</svg>
