<svg width="48" height="40" viewBox="0 0 48 40" fill="none" xmlns="http://www.w3.org/2000/svg">
<g id="Frame" clip-path="url(#clip0_352_1143)">
<g id="Group">
<g id="Clip path group">
<mask id="mask0_352_1143" style="mask-type:luminance" maskUnits="userSpaceOnUse" x="3" y="0" width="41" height="40">
<g id="53a4f0b3-dfa7-45c4-81c8-7f6e0061e582_comp-lc7kvt9j">
<path id="Vector" d="M43.518 0V39.893H3.625V0H43.518Z" fill="white"/>
</g>
</mask>
<g mask="url(#mask0_352_1143)">
<g id="Group_2">
<path id="Vector_2" d="M23.625 0C27.5806 0 31.4474 1.17298 34.7364 3.37061C38.0254 5.56824 40.5888 8.69181 42.1026 12.3463C43.6163 16.0009 44.0124 20.0222 43.2407 23.9018C42.469 27.7814 40.5642 31.3451 37.7671 34.1421C34.9701 36.9392 31.4064 38.844 27.5268 39.6157C23.6472 40.3874 19.6259 39.9913 15.9713 38.4776C12.3168 36.9638 9.19324 34.4004 6.99561 31.1114C4.79798 27.8224 3.625 23.9556 3.625 20C3.625 14.6957 5.73214 9.60859 9.48286 5.85786C13.2336 2.10714 18.3207 0 23.625 0Z" fill="#DFE225"/>
</g>
</g>
</g>
<path id="Vector_3" d="M32.1502 27.6884L25.4907 11.5825C25.4591 11.4028 25.3869 11.2327 25.2796 11.0852C25.1723 10.9377 25.0327 10.8166 24.8715 10.7311C24.5654 10.5359 24.2231 10.4042 23.8651 10.344H23.2459C22.8843 10.3717 22.5385 10.5034 22.2501 10.7231C21.9617 10.9429 21.7429 11.2413 21.6202 11.5825L18.7552 18.629H16.5864C16.2656 18.6506 15.9633 18.7875 15.7355 19.0144C15.5077 19.2414 15.3697 19.5431 15.347 19.8639C15.3689 20.1852 15.5064 20.4877 15.7341 20.7154C15.9618 20.9431 16.2643 21.0806 16.5855 21.1024H17.7479L14.9599 27.8425C14.897 27.9887 14.8705 28.148 14.8828 28.3067C14.8783 28.6426 14.9876 28.9702 15.1929 29.2361C15.2292 29.3071 15.2848 29.3665 15.3532 29.4076C15.4217 29.4486 15.5003 29.4696 15.58 29.4682C15.7263 29.5311 15.8856 29.5575 16.0443 29.5452C16.2947 29.5396 16.5376 29.4587 16.7415 29.3131C16.9601 29.1634 17.1233 28.9458 17.2057 28.6939L20.2258 21.106H22.3936C22.7156 21.0843 23.0188 20.9464 23.2468 20.7179C23.4747 20.4895 23.612 20.186 23.633 19.8639C23.6112 19.5426 23.4737 19.2402 23.246 19.0125C23.0183 18.7848 22.7158 18.6473 22.3945 18.6254H21.2294L23.5523 12.8183L29.8989 28.6141C29.9813 28.866 30.1445 29.0836 30.3631 29.2333C30.567 29.3789 30.8099 29.4598 31.0604 29.4654C31.219 29.4778 31.3784 29.4513 31.5246 29.3884C31.6634 29.3286 31.7936 29.2506 31.9117 29.1563C32.0241 29.0307 32.1096 28.8835 32.1629 28.7237C32.2163 28.5639 32.2363 28.3948 32.2218 28.2269C32.2505 28.1375 32.2589 28.0427 32.2465 27.9496C32.2341 27.8565 32.2012 27.7673 32.1502 27.6884Z" fill="#242424"/>
</g>
</g>
<defs>
<clipPath id="clip0_352_1143">
<rect width="47.25" height="40" fill="white"/>
</clipPath>
</defs>
</svg>
