<svg width="48" height="41" viewBox="0 0 48 41" fill="none" xmlns="http://www.w3.org/2000/svg">
<g id="Frame" clip-path="url(#clip0_352_1414)">
<g id="Group">
<g id="Group_2">
<g id="Clip path group">
<mask id="mask0_352_1414" style="mask-type:luminance" maskUnits="userSpaceOnUse" x="3" y="0" width="42" height="42">
<g id="3e46fcd8-5d69-4854-86f0-05f3b4a2609c_comp-lc7kvtdj10">
<path id="Vector" d="M44.9643 0.0429688V41.8207H3.18652V0.0429688H44.9643Z" fill="white"/>
</g>
</mask>
<g mask="url(#mask0_352_1414)">
<g id="Group_3">
<path id="Vector_2" d="M24.0752 0.899902C28.0308 0.899902 31.8976 2.07288 35.1866 4.27051C38.4756 6.46814 41.039 9.59171 42.5528 13.2462C44.0665 16.9008 44.4626 20.9221 43.6909 24.8017C42.9192 28.6813 41.0144 32.245 38.2173 35.042C35.4203 37.8391 31.8566 39.7439 27.977 40.5156C24.0974 41.2873 20.076 40.8912 16.4215 39.3775C12.767 37.8637 9.64343 35.3003 7.4458 32.0113C5.24817 28.7223 4.0752 24.8555 4.0752 20.8999C4.0752 15.5956 6.18233 10.5085 9.93306 6.75777C13.6838 3.00704 18.7709 0.899902 24.0752 0.899902Z" fill="#DFE225"/>
<path id="Vector_3" d="M14.3374 27.1709V17.6598L21.5498 23.0873V27.17H23.3916V22.7042C23.3917 22.5377 23.353 22.3734 23.2786 22.2244C23.2043 22.0753 23.0963 21.9457 22.9632 21.8456L14.2156 15.2625C14.056 15.1426 13.8662 15.0696 13.6674 15.0515C13.4687 15.0335 13.2688 15.0711 13.0903 15.1603C12.9117 15.2494 12.7615 15.3865 12.6565 15.5562C12.5514 15.7259 12.4957 15.9215 12.4956 16.1211V27.17L14.3374 27.1709ZM34.2858 27.1709V17.6598L27.0734 23.0873V27.17H25.2316V22.7042C25.2315 22.5377 25.2702 22.3734 25.3446 22.2244C25.4189 22.0753 25.5269 21.9457 25.6601 21.8456L34.4076 15.2625C34.5672 15.1426 34.757 15.0696 34.9558 15.0515C35.1545 15.0335 35.3544 15.0711 35.5329 15.1603C35.7115 15.2494 35.8617 15.3865 35.9668 15.5562C36.0718 15.7259 36.1275 15.9215 36.1276 16.1211V27.17L34.2858 27.1709Z" fill="#242424"/>
</g>
</g>
</g>
</g>
</g>
</g>
<defs>
<clipPath id="clip0_352_1414">
<rect width="47.25" height="40" fill="white" transform="translate(0.450195 0.899902)"/>
</clipPath>
</defs>
</svg>
