<svg width="109" height="126" viewBox="0 0 109 126" fill="none" xmlns="http://www.w3.org/2000/svg">
<path d="M1.57543 112.86C1.57543 112.296 1.49804 111.881 1.34326 111.616C1.18848 111.34 0.878925 111.201 0.414587 111.201H0.248752L0.248752 110.704H4.75946C6.99271 110.704 8.68975 111.179 9.8506 112.13C11.0225 113.07 11.6084 114.396 11.6084 116.11C11.6084 117.205 11.3597 118.172 10.8622 119.012C10.3757 119.841 9.64607 120.488 8.67317 120.952C7.71133 121.417 6.55048 121.649 5.19063 121.649H1.57543L1.57543 112.86ZM5.14088 120.986C5.91478 120.986 6.60023 120.792 7.19724 120.405C7.8053 120.018 8.27516 119.46 8.60683 118.73C8.94956 118.001 9.12092 117.149 9.12092 116.176C9.12092 115.215 8.94956 114.374 8.60683 113.656C8.27516 112.926 7.8053 112.362 7.19724 111.964C6.58918 111.566 5.89267 111.367 5.10772 111.367H4.97505C4.61021 111.367 4.31724 111.389 4.09612 111.433L3.73129 111.483L3.73129 120.87L4.09612 120.936C4.32829 120.969 4.62127 120.986 4.97505 120.986H5.14088ZM22.0724 121.715C21.3759 121.715 20.7457 121.572 20.1819 121.284C19.618 120.986 19.1592 120.411 18.8054 119.559L18.424 118.631H14.0128L12.653 121.649H11.7906L16.6828 110.704H17.429L21.1437 119.559C21.5638 120.588 22.1387 121.14 22.8684 121.218V121.632C22.6694 121.688 22.4041 121.715 22.0724 121.715ZM14.3611 117.884H18.1089L16.2848 113.556L14.3611 117.884ZM28.0579 121.981C26.9855 121.981 26.0292 121.726 25.1889 121.218C24.3598 120.709 23.7185 120.013 23.2653 119.128C22.812 118.244 22.5853 117.26 22.5853 116.176C22.5853 115.093 22.812 114.109 23.2653 113.225C23.7185 112.34 24.3598 111.644 25.1889 111.135C26.0292 110.626 26.9855 110.372 28.0579 110.372C29.1303 110.372 30.0811 110.626 30.9102 111.135C31.7394 111.644 32.3806 112.34 32.8339 113.225C33.2872 114.109 33.5139 115.093 33.5139 116.176C33.5139 117.26 33.2872 118.244 32.8339 119.128C32.3806 120.013 31.7394 120.709 30.9102 121.218C30.0811 121.726 29.1303 121.981 28.0579 121.981ZM28.0579 121.234C29.064 121.234 29.8434 120.798 30.3962 119.924C30.9489 119.04 31.2253 117.79 31.2253 116.176C31.2253 114.562 30.9489 113.318 30.3962 112.445C29.8434 111.561 29.064 111.118 28.0579 111.118C27.0518 111.118 26.2724 111.561 25.7196 112.445C25.1779 113.318 24.907 114.562 24.907 116.176C24.907 117.79 25.1779 119.04 25.7196 119.924C26.2724 120.798 27.0518 121.234 28.0579 121.234Z" fill="#DFE225"/>
<path d="M38.961 112.694C38.961 112.13 38.8836 111.715 38.7288 111.45C38.574 111.174 38.2645 111.035 37.8001 111.035H37.4685V110.704H41.7802C42.8415 110.704 43.7978 110.93 44.6491 111.384C45.5004 111.837 45.926 112.716 45.926 114.021C45.926 114.883 45.7049 115.546 45.2627 116.011C44.8205 116.475 44.323 116.784 43.7702 116.939C43.2285 117.094 42.731 117.171 42.2777 117.171H40.4535V121.649H38.961V112.694ZM41.6973 116.591C42.051 116.591 42.4269 116.503 42.8249 116.326C43.2229 116.138 43.5601 115.845 43.8365 115.447C44.124 115.049 44.2677 114.546 44.2677 113.938C44.2677 113.33 44.124 112.827 43.8365 112.429C43.5601 112.03 43.2229 111.743 42.8249 111.566C42.4269 111.378 42.051 111.284 41.6973 111.284C41.3103 111.284 40.8957 111.34 40.4535 111.45V116.425C40.8957 116.536 41.3103 116.591 41.6973 116.591ZM47.963 112.694C47.963 112.13 47.8856 111.715 47.7308 111.45C47.576 111.174 47.2665 111.035 46.8021 111.035H46.4705V110.704H47.963C48.372 110.704 48.6761 110.759 48.8751 110.87C49.0851 110.969 49.2344 111.157 49.3228 111.433C49.4113 111.71 49.4555 112.13 49.4555 112.694V120.986H55.3426V121.649H47.963V112.694ZM60.4631 121.981C59.4349 121.981 58.5283 121.726 57.7434 121.218C56.9695 120.709 56.3725 120.013 55.9524 119.128C55.5322 118.244 55.3222 117.26 55.3222 116.176C55.3222 115.093 55.5322 114.109 55.9524 113.225C56.3725 112.34 56.9695 111.644 57.7434 111.135C58.5283 110.626 59.4349 110.372 60.4631 110.372C61.4912 110.372 62.3923 110.626 63.1662 111.135C63.9511 111.644 64.5537 112.34 64.9738 113.225C65.3939 114.109 65.604 115.093 65.604 116.176C65.604 117.26 65.3939 118.244 64.9738 119.128C64.5537 120.013 63.9511 120.709 63.1662 121.218C62.3923 121.726 61.4912 121.981 60.4631 121.981ZM60.4631 121.317C61.1817 121.317 61.8008 121.107 62.3204 120.687C62.8511 120.267 63.2546 119.675 63.531 118.913C63.8074 118.139 63.9456 117.227 63.9456 116.176C63.9456 115.126 63.8074 114.22 63.531 113.457C63.2546 112.683 62.8511 112.086 62.3204 111.666C61.8008 111.246 61.1817 111.035 60.4631 111.035C59.7444 111.035 59.1198 111.246 58.5891 111.666C58.0695 112.086 57.6715 112.683 57.3951 113.457C57.1187 114.22 56.9805 115.126 56.9805 116.176C56.9805 117.227 57.1187 118.139 57.3951 118.913C57.6715 119.675 58.0695 120.267 58.5891 120.687C59.1198 121.107 59.7444 121.317 60.4631 121.317ZM80.164 122.395C79.368 122.395 78.7489 122.274 78.3067 122.03C77.8644 121.787 77.5494 121.411 77.3614 120.903C77.1845 120.383 77.0961 119.692 77.0961 118.83V112.445L72.9502 121.649H72.6185L68.3068 112.279V121.649H67.6435V110.704H69.2189L73.199 119.327L77.0961 110.704H78.5886V118.83C78.5886 119.858 78.7157 120.654 78.97 121.218C79.2353 121.782 79.6333 122.064 80.164 122.064V122.395ZM90.5708 121.732C90.0402 121.732 89.515 121.588 88.9954 121.301C88.4758 121.002 88.0612 120.427 87.7516 119.576L87.337 118.498L82.6937 118.498L81.367 121.649H80.6207L85.2641 110.704H85.7616L89.41 119.576C89.6864 120.217 89.9462 120.659 90.1894 120.903C90.4326 121.135 90.7809 121.273 91.2342 121.317V121.649C91.0352 121.704 90.8141 121.732 90.5708 121.732ZM82.9424 117.835L87.0054 117.835L85.0154 113.026L82.9424 117.835ZM93.8758 111.367H92.3832C91.0013 111.367 90.3103 112.003 90.3103 113.274H89.9786V112.03C89.9786 111.146 90.4485 110.704 91.3882 110.704H99.0996V111.367H95.3683V121.649H93.8758V111.367ZM103.827 121.931C103.219 121.931 102.622 121.848 102.036 121.682C101.45 121.516 100.969 121.279 100.593 120.969C100.229 120.659 100.046 120.306 100.046 119.908V118.133H100.345C100.533 119.239 100.897 120.04 101.439 120.538C101.981 121.024 102.727 121.268 103.678 121.268C104.275 121.268 104.783 121.118 105.204 120.82C105.635 120.521 105.85 120.107 105.85 119.576C105.85 119.112 105.707 118.708 105.419 118.365C105.132 118.023 104.667 117.663 104.026 117.287L101.986 116.077C101.279 115.657 100.776 115.231 100.477 114.8C100.19 114.369 100.046 113.844 100.046 113.225C100.046 112.373 100.339 111.693 100.925 111.185C101.522 110.665 102.301 110.405 103.263 110.405C103.827 110.405 104.385 110.488 104.938 110.654C105.491 110.809 105.944 111.041 106.298 111.351C106.663 111.649 106.845 111.997 106.845 112.395V114.17H106.547C106.359 113.064 106 112.274 105.469 111.798C104.949 111.312 104.214 111.069 103.263 111.069C102.755 111.069 102.307 111.223 101.92 111.533C101.533 111.843 101.34 112.246 101.34 112.744C101.34 113.197 101.478 113.573 101.754 113.871C102.042 114.17 102.517 114.518 103.18 114.916L105.22 116.127C105.972 116.58 106.503 117 106.812 117.387C107.122 117.774 107.277 118.266 107.277 118.863C107.277 119.792 106.967 120.538 106.348 121.102C105.729 121.654 104.889 121.931 103.827 121.931Z" fill="#E8E8E8"/>
<g filter="url(#filter0_b_152_2948)">
<path fill-rule="evenodd" clip-rule="evenodd" d="M77.2728 6.76503C70.5936 2.48298 62.6507 0 54.1279 0C30.412 0 11.1865 19.2255 11.1865 42.9414C11.1865 54.7992 15.9929 65.5345 23.7638 73.3054C27.7706 77.3123 32.5656 80.531 37.8963 82.709C42.904 84.7551 48.3844 85.8829 54.1281 85.8829C77.844 85.8829 97.0695 66.6574 97.0695 42.9415C97.0695 27.9338 89.3705 14.7242 77.7066 7.04684C77.5626 6.95206 77.4179 6.85812 77.2728 6.76503ZM54.3092 0.00054286C54.2488 0.000181124 54.1884 0 54.1279 0C54.0671 0 54.0063 0.000183302 53.9455 0.000549383C54.0064 0.000296097 54.0672 0.000169333 54.1281 0.000169338C54.1885 0.000169343 54.2488 0.000293932 54.3092 0.00054286ZM80.606 42.9412C75.7306 33.2628 65.7047 26.6238 54.1281 26.6238C42.5513 26.6238 32.5253 33.263 27.65 42.9417C32.5254 52.6201 42.5514 59.2591 54.1279 59.2591C65.7047 59.2591 75.7307 52.6199 80.606 42.9412ZM54.3137 85.8823C54.2519 85.8827 54.19 85.8829 54.1281 85.8829C54.0666 85.8829 54.0051 85.8827 53.9436 85.8823C54.005 85.8826 54.0664 85.8827 54.1279 85.8827C54.1899 85.8827 54.2518 85.8826 54.3137 85.8823Z" fill="url(#paint0_linear_152_2948)"/>
</g>
<g filter="url(#filter1_b_152_2948)">
<path fill-rule="evenodd" clip-rule="evenodd" d="M54.128 0C77.8436 -1.03665e-06 97.0693 19.2255 97.0693 42.9414C97.0693 66.657 77.8436 85.8827 54.128 85.8827C30.4121 85.8827 11.1866 66.657 11.1866 42.9414C11.1866 19.2255 30.4121 1.03665e-06 54.128 0ZM54.128 0C70.4921 -7.15291e-07 83.7575 13.2656 83.7575 29.6295C83.7575 45.9936 70.4921 59.2591 54.128 59.2591C37.7641 59.2591 24.4985 45.9936 24.4985 29.6295C24.4985 13.2656 37.7641 7.15291e-07 54.128 0ZM54.1279 85.8829C30.4122 85.8829 11.1865 66.6574 11.1865 42.9415C11.1865 19.2259 30.4122 0.000191106 54.1279 0.00019318C77.8437 0.000195253 97.0692 19.2259 97.0692 42.9415C97.0692 66.6574 77.8437 85.8829 54.1279 85.8829ZM54.1279 85.8829C37.7638 85.8829 24.4983 72.6173 24.4983 56.2534C24.4983 39.8893 37.7638 26.6238 54.1279 26.6238C70.4918 26.6238 83.7574 39.8893 83.7574 56.2534C83.7574 72.6173 70.4918 85.8829 54.1279 85.8829Z" fill="url(#paint1_linear_152_2948)" fill-opacity="0.8"/>
</g>
<defs>
<filter id="filter0_b_152_2948" x="-10.2842" y="-21.4707" width="128.824" height="128.824" filterUnits="userSpaceOnUse" color-interpolation-filters="sRGB">
<feFlood flood-opacity="0" result="BackgroundImageFix"/>
<feGaussianBlur in="BackgroundImageFix" stdDeviation="10.7353"/>
<feComposite in2="SourceAlpha" operator="in" result="effect1_backgroundBlur_152_2948"/>
<feBlend mode="normal" in="SourceGraphic" in2="effect1_backgroundBlur_152_2948" result="shape"/>
</filter>
<filter id="filter1_b_152_2948" x="-10.2842" y="-21.4707" width="128.824" height="128.824" filterUnits="userSpaceOnUse" color-interpolation-filters="sRGB">
<feFlood flood-opacity="0" result="BackgroundImageFix"/>
<feGaussianBlur in="BackgroundImageFix" stdDeviation="10.7353"/>
<feComposite in2="SourceAlpha" operator="in" result="effect1_backgroundBlur_152_2948"/>
<feBlend mode="normal" in="SourceGraphic" in2="effect1_backgroundBlur_152_2948" result="shape"/>
</filter>
<linearGradient id="paint0_linear_152_2948" x1="54.1279" y1="114.868" x2="54.1279" y2="-63.3385" gradientUnits="userSpaceOnUse">
<stop stop-color="#A7AB10"/>
<stop offset="1" stop-color="#F4F858"/>
</linearGradient>
<linearGradient id="paint1_linear_152_2948" x1="54.1279" y1="97.0475" x2="56.275" y2="1.10927e-06" gradientUnits="userSpaceOnUse">
<stop stop-color="#DFE225"/>
<stop offset="0.557292" stop-color="#5F6117"/>
<stop offset="1" stop-color="#DFE225"/>
</linearGradient>
</defs>
</svg>
