<svg width="52" height="48" viewBox="0 0 52 48" fill="none" xmlns="http://www.w3.org/2000/svg">
<path id="Vector" d="M48.88 0H3.12C2.29252 0 1.49894 0.328713 0.913827 0.913826C0.328713 1.49894 0 2.29252 0 3.12V38.48C0 39.3075 0.328713 40.1011 0.913827 40.6862C1.49894 41.2713 2.29252 41.6 3.12 41.6H8.32V46.8C8.32 47.0758 8.42957 47.3404 8.62461 47.5354C8.81965 47.7304 9.08417 47.84 9.36 47.84C9.63583 47.84 9.90035 47.7304 10.0954 47.5354C10.2904 47.3404 10.4 47.0758 10.4 46.8V41.6H41.6V46.8C41.6 47.0758 41.7096 47.3404 41.9046 47.5354C42.0996 47.7304 42.3642 47.84 42.64 47.84C42.9158 47.84 43.1804 47.7304 43.3754 47.5354C43.5704 47.3404 43.68 47.0758 43.68 46.8V41.6H48.88C49.7075 41.6 50.5011 41.2713 51.0862 40.6862C51.6713 40.1011 52 39.3075 52 38.48V3.12C52 2.29252 51.6713 1.49894 51.0862 0.913826C50.5011 0.328713 49.7075 0 48.88 0ZM48.88 39.52H3.12C2.84417 39.52 2.57965 39.4104 2.38461 39.2154C2.18957 39.0204 2.08 38.7558 2.08 38.48V3.12C2.08 2.84417 2.18957 2.57965 2.38461 2.38461C2.57965 2.18957 2.84417 2.08 3.12 2.08H48.88C49.1558 2.08 49.4204 2.18957 49.6154 2.38461C49.8104 2.57965 49.92 2.84417 49.92 3.12V20.8H43.6306C43.363 17.8682 41.9754 15.1525 39.7565 13.2177C37.5377 11.2828 34.6583 10.2779 31.7174 10.4118C28.7765 10.5458 26.0005 11.8084 23.9667 13.9369C21.9329 16.0654 20.798 18.896 20.798 21.84C20.798 24.784 21.9329 27.6146 23.9667 29.7431C26.0005 31.8716 28.7765 33.1342 31.7174 33.2682C34.6583 33.4021 37.5377 32.3972 39.7565 30.4623C41.9754 28.5275 43.363 25.8118 43.6306 22.88H49.92V38.48C49.92 38.7558 49.8104 39.0204 49.6154 39.2154C49.4204 39.4104 49.1558 39.52 48.88 39.52ZM35.178 20.8C34.9327 20.1061 34.4499 19.5213 33.8151 19.1489C33.1803 18.7765 32.4342 18.6405 31.7088 18.7649C30.9834 18.8894 30.3254 19.2663 29.851 19.829C29.3766 20.3917 29.1164 21.104 29.1164 21.84C29.1164 22.576 29.3766 23.2883 29.851 23.851C30.3254 24.4137 30.9834 24.7906 31.7088 24.9151C32.4342 25.0395 33.1803 24.9035 33.8151 24.5311C34.4499 24.1587 34.9327 23.5739 35.178 22.88H41.5402C41.2744 25.2575 40.1084 27.4429 38.2816 28.9875C36.4548 30.5321 34.1059 31.3186 31.7173 31.1855C29.3288 31.0524 27.0818 30.0098 25.438 28.2717C23.7941 26.5337 22.8782 24.2323 22.8782 21.84C22.8782 19.4477 23.7941 17.1463 25.438 15.4082C27.0818 13.6702 29.3288 12.6276 31.7173 12.4945C34.1059 12.3614 36.4548 13.1479 38.2816 14.6925C40.1084 16.2371 41.2744 18.4225 41.5402 20.8H35.178Z" fill="#242424"/>
</svg>
