<svg width="67" height="53" viewBox="0 0 67 53" fill="none" xmlns="http://www.w3.org/2000/svg">
<path id="Vector" d="M3.41935 20.5177H11.3978V41.0337H5.69891C5.39662 41.0337 5.10671 41.1538 4.89296 41.3676C4.67921 41.5813 4.55913 41.8712 4.55913 42.1735C4.55913 42.4758 4.67921 42.7657 4.89296 42.9795C5.10671 43.1932 5.39662 43.3133 5.69891 43.3133H60.4085C60.7107 43.3133 61.0006 43.1932 61.2144 42.9795C61.4281 42.7657 61.5482 42.4758 61.5482 42.1735C61.5482 41.8712 61.4281 41.5813 61.2144 41.3676C61.0006 41.1538 60.7107 41.0337 60.4085 41.0337H54.7095V20.5177H62.688C62.9366 20.5182 63.1785 20.4375 63.3769 20.2879C63.5754 20.1382 63.7194 19.9278 63.7872 19.6887C63.855 19.4495 63.8427 19.1948 63.7523 18.9633C63.6619 18.7318 63.4983 18.5361 63.2864 18.4062L33.6521 0.169711C33.4722 0.0587582 33.265 0 33.0537 0C32.8423 0 32.6352 0.0587582 32.4553 0.169711L2.82096 18.4062C2.60907 18.5361 2.44546 18.7318 2.35505 18.9633C2.26464 19.1948 2.25239 19.4495 2.32016 19.6887C2.38793 19.9278 2.532 20.1382 2.73044 20.2879C2.92888 20.4375 3.1708 20.5182 3.41935 20.5177ZM13.6774 20.5177H25.0752V41.0337H13.6774V20.5177ZM38.7526 20.5177V41.0337H27.3548V20.5177H38.7526ZM52.43 41.0337H41.0322V20.5177H52.43V41.0337ZM33.0537 2.48062L58.6617 18.2381H7.44563L33.0537 2.48062ZM66.1074 51.2918C66.1074 51.5941 65.9873 51.884 65.7735 52.0977C65.5598 52.3115 65.2699 52.4316 64.9676 52.4316H1.13978C0.837493 52.4316 0.547585 52.3115 0.333834 52.0977C0.120084 51.884 0 51.5941 0 51.2918C0 50.9895 0.120084 50.6996 0.333834 50.4858C0.547585 50.2721 0.837493 50.152 1.13978 50.152H64.9676C65.2699 50.152 65.5598 50.2721 65.7735 50.4858C65.9873 50.6996 66.1074 50.9895 66.1074 51.2918Z" fill="#242424"/>
</svg>
