<svg width="66" height="65" viewBox="0 0 66 65" fill="none" xmlns="http://www.w3.org/2000/svg">
<path id="Vector" d="M56.3237 13.0491C55.4574 13.0559 54.6086 12.8053 53.885 12.329C53.1613 11.8527 52.5955 11.1722 52.2592 10.3738C51.9229 9.57543 51.8314 8.69514 51.9962 7.84465C52.161 6.99415 52.5747 6.21177 53.1848 5.59676C53.795 4.98175 54.574 4.56184 55.4232 4.39029C56.2724 4.21875 57.1533 4.3033 57.9544 4.63322C58.7554 4.96314 59.4404 5.52357 59.9224 6.24339C60.4045 6.96322 60.6618 7.81001 60.6618 8.67632C60.6632 9.83066 60.2078 10.9386 59.395 11.7583C58.5821 12.5779 57.478 13.0426 56.3237 13.0508M60.6618 0H30.2272C29.0781 0.00455475 27.9773 0.463072 27.1647 1.27565C26.3522 2.08823 25.8936 3.18901 25.8891 4.33816V17.7782H47.2218V39.1092H60.6618C61.811 39.1046 62.9118 38.6461 63.7244 37.8335C64.5369 37.021 64.9954 35.9202 65 34.771V4.33989C64.9959 3.19044 64.5376 2.08922 63.725 1.27626C62.9123 0.463313 61.8113 0.00455765 60.6618 0ZM34.5637 13.0491C33.6978 13.0498 32.8513 12.7936 32.1311 12.313C31.4109 11.8324 30.8494 11.149 30.5178 10.3492C30.1861 9.54938 30.0992 8.66918 30.2679 7.81996C30.4367 6.97073 30.8535 6.19065 31.4658 5.57841C32.078 4.96618 32.8581 4.54932 33.7073 4.38057C34.5565 4.21182 35.4367 4.29878 36.2365 4.63043C37.0363 4.96209 37.7197 5.52353 38.2003 6.24373C38.6809 6.96392 38.9371 7.8105 38.9364 8.67632C38.9367 9.25063 38.8237 9.81935 38.604 10.35C38.3844 10.8806 38.0623 11.3627 37.6562 11.7688C37.2501 12.1749 36.768 12.497 36.2373 12.7167C35.7067 12.9364 35.138 13.0493 34.5637 13.0491ZM56.3237 34.7745C55.4559 34.7813 54.6057 34.5298 53.8814 34.052C53.157 33.5741 52.5912 32.8916 52.2559 32.0912C51.9207 31.2907 51.8312 30.4087 51.9988 29.5572C52.1664 28.7058 52.5836 27.9235 53.1972 27.3099C53.8108 26.6962 54.5931 26.2791 55.4446 26.1115C56.296 25.9438 57.1781 26.0333 57.9785 26.3686C58.7789 26.7038 59.4615 27.2696 59.9393 27.994C60.4172 28.7184 60.6687 29.5686 60.6618 30.4363C60.6537 31.5844 60.194 32.6831 59.3822 33.4949C58.5704 34.3067 57.4717 34.7663 56.3237 34.7745ZM5.33816 24.8891H35.7728C36.3426 24.8886 36.9069 25.0005 37.4334 25.2184C37.96 25.4362 38.4384 25.7558 38.8413 26.1587C39.2442 26.5616 39.5638 27.04 39.7816 27.5666C39.9995 28.0931 40.1114 28.6574 40.1109 29.2272V59.6618C40.1064 60.811 39.6478 61.9118 38.8353 62.7244C38.0227 63.5369 36.9219 63.9954 35.7728 64H5.33816C4.18901 63.9954 3.08823 63.5369 2.27565 62.7244C1.46307 61.9118 1.00455 60.811 1 59.6618V29.2272C1.00455 28.0781 1.46307 26.9773 2.27565 26.1647C3.08823 25.3522 4.18901 24.8936 5.33816 24.8891ZM20.5563 40.1072C19.5535 40.1076 18.5819 40.4557 17.807 41.0921C17.032 41.7285 16.5017 42.614 16.3064 43.5975C16.111 44.5811 16.2627 45.602 16.7357 46.4862C17.2086 47.3705 17.9735 48.0634 18.9 48.447C19.8265 48.8306 20.8574 48.881 21.8169 48.5898C22.7765 48.2986 23.6054 47.6837 24.1624 46.8498C24.7195 46.016 24.9702 45.0148 24.8718 44.0169C24.7735 43.0189 24.3322 42.0859 23.6231 41.3769C22.8085 40.5655 21.7061 40.1091 20.5563 40.1072ZM9.67632 29.2272C8.91487 29.2275 8.16688 29.428 7.50746 29.8088C6.84805 30.1895 6.30041 30.7371 5.91955 31.3964C5.5387 32.0558 5.33802 32.8038 5.33768 33.5652C5.33734 34.3267 5.53735 35.0748 5.91762 35.7345C6.30198 36.3918 6.84952 36.9387 7.50724 37.3224C8.16685 37.7016 8.91454 37.9008 9.67538 37.9001C10.4362 37.8993 11.1835 37.6986 11.8424 37.3181C12.5013 36.9376 13.0486 36.3907 13.4295 35.732C13.8104 35.0734 14.0115 34.3263 14.0128 33.5654C14.0082 32.4166 13.5499 31.316 12.7377 30.5035C11.9255 29.691 10.8252 29.2323 9.67632 29.2272ZM31.4017 50.9527C30.5432 50.952 29.7037 51.206 28.9895 51.6825C28.2753 52.159 27.7185 52.8367 27.3896 53.6297C27.0606 54.4228 26.9743 55.2956 27.1415 56.1377C27.3087 56.9799 27.7219 57.7535 28.3289 58.3607C28.9359 58.9679 29.7093 59.3815 30.5514 59.549C31.3935 59.7165 32.2663 59.6306 33.0595 59.3019C33.8527 58.9733 34.5305 58.4168 35.0074 57.7028C35.4842 56.9888 35.7385 56.1494 35.7382 55.2908C35.7355 54.1474 35.2826 53.051 34.4774 52.239C33.6723 51.4271 32.5797 50.9649 31.4363 50.9527H31.4017Z" stroke="#242424" stroke-width="1.41645" stroke-linecap="round" stroke-linejoin="round"/>
</svg>
