<svg width="120" height="120" viewBox="0 0 120 120" fill="none" xmlns="http://www.w3.org/2000/svg">
<g id="Group 1004" style="mix-blend-mode:exclusion" opacity="0.7">
<path id="Vector" d="M48.569 29.807H71.443C70.9599 27.7035 70.4301 25.7194 69.8536 23.8756C67.1528 15.2329 63.6573 9.88324 60.0008 9.88324C56.3443 9.88324 52.854 15.2329 50.148 23.8756C49.5714 25.7142 49.0416 27.7035 48.5586 29.807H48.569Z" fill="white"/>
<path id="Vector_2" d="M47.8667 86.852H72.1482C73.5661 79.5026 74.4179 70.9015 74.5114 61.6719H45.5034C45.5969 70.9015 46.4487 79.5026 47.8667 86.852Z" fill="white"/>
<path id="Vector_3" d="M35.6251 24.3389C34.4254 26.0425 33.3139 27.8708 32.2959 29.8081H45.1508C45.6962 27.3358 46.3039 25.0194 46.9739 22.8899C48.5321 17.9038 50.4433 13.8577 52.6144 11.0374C46.0857 13.0942 40.227 17.7998 35.6303 24.3441L35.6251 24.3389Z" fill="white"/>
<path id="Vector_4" d="M25.2847 61.6719C25.4976 70.9171 27.4453 79.5286 30.6863 86.852H44.4709C43.0842 79.4351 42.2532 70.8444 42.1649 61.6719H25.2899H25.2847Z" fill="white"/>
<path id="Vector_5" d="M30.6863 33.1477C27.4453 40.4711 25.4976 49.0826 25.2847 58.3278H42.1597C42.248 49.1553 43.079 40.5646 44.4657 33.1477H30.6811H30.6863Z" fill="white"/>
<path id="Vector_6" d="M72.1482 33.1477H47.8667C46.4487 40.4971 45.5969 49.0982 45.5034 58.3278H74.5114C74.4179 49.0982 73.5661 40.4971 72.1482 33.1477Z" fill="white"/>
<path id="Vector_7" d="M74.8656 29.8078H87.7205C86.7025 27.8705 85.591 26.0474 84.3912 24.3386C79.7894 17.7995 73.9306 13.0887 67.4019 11.0319C69.5729 13.8522 71.4843 17.8983 73.0425 22.8844C73.7073 25.0191 74.3202 27.3355 74.8656 29.8026V29.8078Z" fill="white"/>
<path id="Vector_8" d="M98.0661 58.3278H110.09C109.789 49.0826 106.979 40.4659 102.325 33.1477H92.9502C96.025 40.5906 97.8687 49.1709 98.0661 58.3278Z" fill="white"/>
<path id="Vector_9" d="M75.5405 86.852H89.3252C92.5662 79.5286 94.5138 70.9171 94.7268 61.6719H77.8518C77.7635 70.8444 76.9325 79.4351 75.5457 86.852H75.5405Z" fill="white"/>
<path id="Vector_10" d="M87.1179 22.422C88.7124 24.6917 90.1614 27.164 91.4495 29.8077H100.004C98.6015 27.9535 97.0797 26.2032 95.4436 24.5619C90.7691 19.8874 85.1701 16.1374 78.9478 13.5923C81.955 16.0127 84.6975 18.9888 87.1179 22.422Z" fill="white"/>
<path id="Vector_11" d="M89.3252 33.1477H75.5405C76.9273 40.5698 77.7583 49.1553 77.8466 58.3278H94.7216C94.5086 49.0774 92.561 40.4711 89.32 33.1477H89.3252Z" fill="white"/>
<path id="Vector_12" d="M84.3912 95.6561C85.5858 93.9525 86.7025 92.1242 87.7205 90.1921H74.8656C74.3202 92.6644 73.7125 94.9809 73.0425 97.1104C71.4843 102.097 69.5729 106.143 67.4019 108.963C73.9306 106.906 79.7894 102.2 84.3912 95.6561Z" fill="white"/>
<path id="Vector_13" d="M87.1179 97.5781C84.7027 101.016 81.955 103.993 78.9478 106.408C85.1701 103.868 90.7639 100.113 95.4436 95.4383C97.0797 93.797 98.6067 92.0466 100.004 90.1976H91.4495C90.1614 92.8413 88.7124 95.3136 87.1179 97.5833V97.5781Z" fill="white"/>
<path id="Vector_14" d="M71.4428 90.1921H48.5688C49.0519 92.2956 49.5817 94.2798 50.1582 96.1184C52.859 104.766 56.3545 110.111 60.011 110.111C63.6675 110.111 67.1578 104.761 69.8639 96.1184C70.4404 94.2798 70.9702 92.2956 71.4532 90.1921H71.4428Z" fill="white"/>
<path id="Vector_15" d="M92.9502 86.852H102.325C106.979 79.5286 109.789 70.9171 110.09 61.6719H98.0661C97.8636 70.8288 96.025 79.4143 92.9502 86.852Z" fill="white"/>
<path id="Vector_16" d="M21.9447 61.6719H9.9209C10.2221 70.9171 13.032 79.5338 17.6858 86.852H27.0608C23.986 79.4143 22.1421 70.8288 21.9447 61.6719Z" fill="white"/>
<path id="Vector_17" d="M32.8929 22.422C35.3081 18.9836 38.0557 16.0075 41.0629 13.5923C34.8406 16.1322 29.2468 19.8874 24.5671 24.5619C22.931 26.2032 21.404 27.9535 20.0068 29.8077H28.5612C29.8493 27.164 31.2984 24.6917 32.8929 22.422Z" fill="white"/>
<path id="Vector_18" d="M45.1508 90.1921H32.2959C33.3139 92.1294 34.4254 93.9525 35.6251 95.6561C40.2269 102.2 46.0805 106.911 52.6092 108.963C50.4381 106.143 48.5269 102.097 46.9687 97.1104C46.3039 94.9757 45.691 92.6592 45.1456 90.1921H45.1508Z" fill="white"/>
<path id="Vector_19" d="M27.0608 33.1477H17.6858C13.0268 40.4711 10.2221 49.0826 9.9209 58.3278H21.9447C22.1473 49.1709 23.986 40.5854 27.0608 33.1477Z" fill="white"/>
<path id="Vector_20" d="M32.8929 97.5778C31.2984 95.3081 29.8493 92.8358 28.5612 90.1921H20.0068C21.4092 92.0463 22.931 93.7967 24.5671 95.4328C29.2416 100.107 34.8406 103.862 41.0629 106.402C38.0557 103.987 35.3133 101.011 32.8929 97.5726V97.5778Z" fill="white"/>
<path id="Vector_21" d="M116.531 60H113.056C113.056 74.6624 107.124 87.9016 97.5156 97.5104C87.9016 107.114 74.6624 113.045 60 113.05C45.3376 113.05 32.0984 107.119 22.4844 97.5104C12.8809 87.8965 6.94951 74.6572 6.94431 60C6.94431 45.3376 12.8757 32.0984 22.4844 22.4844C32.0984 12.8757 45.3376 6.94938 60 6.94419C74.6624 6.94419 87.9016 12.8757 97.5156 22.4844C107.119 32.0984 113.051 45.3376 113.056 60H120C120 26.8629 93.1423 0 60 0C26.8629 0 0.0051939 26.8577 0 60C0 93.1371 26.8577 119.995 60 119.995C93.1371 119.995 119.995 93.1371 120 60H116.525H116.531Z" fill="white"/>
</g>
</svg>
